<?xml version="1.0" encoding="UTF-8"?>
<svg version="1.1" xmlns="http://www.w3.org/2000/svg" width="420" height="425">
<path d="M0 0 C0.87785156 0.29390625 1.75570312 0.5878125 2.66015625 0.890625 C16.95710729 6.24020879 28.21257818 14.82024853 34.8125 28.6875 C37.2951744 34.23937059 38.05301958 38.89269222 38.1875 44.97583008 C38.55494279 57.97842491 43.1058637 65.00255474 50.98046875 75.25390625 C57.03561999 83.48750648 58.71658924 93.25712781 57.46484375 103.28515625 C55.80024586 113.00696748 51.88731211 124.53678591 44 131 C43.34 131 42.68 131 42 131 C41.34 132.32 40.68 133.64 40 135 C39.34 135 38.68 135 38 135 C38 135.66 38 136.32 38 137 C36.38260845 138.29331861 34.70326111 139.50956534 33 140.6875 C24.37003472 146.8438377 16.47291855 152.58124435 13 163 C12.69513559 166.12486016 12.49158784 169.25028111 12.28125 172.3828125 C12 175 12 175 11 176 C4.1211757 176.72408677 0.42412936 175.18260641 -5 171 C-9.21085703 167.56482716 -10.61292756 164.23146842 -11.2578125 158.84765625 C-11.69226717 149.91237192 -9.15695899 140.35459768 -4 133 C-1.82541542 131.01084051 -0.56169914 130.0650075 2.39428711 129.72290039 C3.2631958 129.76406982 4.13210449 129.80523926 5.02734375 129.84765625 C6.46303711 129.88922852 6.46303711 129.88922852 7.92773438 129.93164062 C9.93051956 130.01871824 11.93313271 130.10984931 13.93554688 130.20507812 C18.34202979 130.32657496 21.21036202 130.40449592 25.1875 128.3671875 C27.51428328 125.3283283 27.40939577 123.83083353 27.0625 120.0625 C26.79005525 114.34116022 26.79005525 114.34116022 29 110.75 C29.66 110.1725 30.32 109.595 31 109 C30.01 108.34 29.02 107.68 28 107 C28 106.34 28 105.68 28 105 C29.32 104.34 30.64 103.68 32 103 C31.9071875 102.34773438 31.814375 101.69546875 31.71875 101.0234375 C31.48256528 98.16391535 31.42938198 95.81952431 32 93 C34.33009294 90.3837553 36.9419644 88.67918919 40 87 C39.39649723 83.93745492 38.44847722 81.93094483 36.6015625 79.42578125 C36.12203125 78.75740234 35.6425 78.08902344 35.1484375 77.40039062 C34.14482195 76.02492264 33.13710131 74.65243915 32.125 73.28320312 C27.14330166 66.31015745 24.35842234 60.02608489 25.65234375 51.4296875 C27.14970817 40.96496089 25.16730457 32.57796885 21 23 C20.67 22.67 20.34 22.34 20 22 C19.97421875 22.73863281 19.9484375 23.47726563 19.921875 24.23828125 C19.10591686 38.83280525 13.6984108 49.9829247 3.203125 60.09765625 C0.12605554 62.75462935 -3.17848277 65.00087634 -6.53125 67.29296875 C-14.4067079 72.50009397 -14.4067079 72.50009397 -18.5625 80.625 C-18.98529715 83.03973836 -19.04495061 84.78111008 -18.55078125 87.1875 C-15.98127453 100.30838537 -17.88936184 112.82654149 -23 125 C-24.38187212 128.37221149 -25.75470586 131.74806878 -27.125 135.125 C-27.47304687 135.97940674 -27.82109375 136.83381348 -28.1796875 137.71411133 C-33.24594009 150.34442517 -35.76466216 161.71295707 -32 175 C-31.3125 177.9375 -31.3125 177.9375 -31 180 C-31.33 180.33 -31.66 180.66 -32 181 C-43.06101362 180.90724517 -52.90677835 177.8240857 -62.5 172.5625 C-73.1377142 166.75715144 -82.51479348 163.94686855 -94.5625 162.5 C-110.31554316 160.58091104 -121.91323658 156.30511681 -132.0078125 143.44140625 C-134.36414063 140.55374923 -136.93573842 138.57805831 -139.9375 136.375 C-140.95714844 135.61960938 -141.97679687 134.86421875 -143.02734375 134.0859375 C-145.62837276 132.26077391 -148.25070871 130.58982958 -151 129 C-150.67 128.01 -150.34 127.02 -150 126 C-138.29453084 121.37080647 -122.68296144 122.53691602 -111.23828125 127.29296875 C-105.27266125 130.43769244 -98.80204821 134.19795179 -94 139 C-94.28019086 135.66105893 -94.73032692 134.27165597 -97.125 131.859375 C-103.0943726 127.47967228 -109.09611067 123.75839624 -115.6875 120.375 C-134.7376811 110.59643772 -142.53577952 97.29837253 -149.75 77.5625 C-150.14832031 76.48806641 -150.54664063 75.41363281 -150.95703125 74.30664062 C-152.34660485 70.55008148 -153.73335206 66.79994382 -155 63 C-147.53682391 60.54175005 -138.37717143 63.72815499 -131.43359375 66.75 C-119.07397552 73.09843954 -108.54251428 82.65285929 -104 96 C-102.99436312 100.44597359 -102.19674108 104.92587041 -101.55541992 109.43847656 C-100.60070596 115.61664979 -98.71516297 119.96626812 -95 125 C-95.9540907 119.91631908 -96.98796161 114.95058254 -98.5 110 C-99.74001328 105.71798371 -100.2605622 101.63540751 -100.61621094 97.21533203 C-101.30274202 87.74632891 -101.30274202 87.74632891 -106.33984375 79.9296875 C-116.19571597 68.47368544 -115.97244793 54.21310819 -115 40 C-111.78256041 22.27650421 -98.29842879 10.06735184 -86 -2 C-85.01 -1.505 -85.01 -1.505 -84 -1 C-78.2551676 17.14631047 -75.50593524 39.73382582 -82 58 C-82.37511719 59.07507813 -82.75023437 60.15015625 -83.13671875 61.2578125 C-85.37503432 67.34433622 -87.93484207 73.1562068 -90.984375 78.87890625 C-96.69580806 90.80701453 -92.42616392 107.04141765 -88.3828125 118.75 C-85.65451305 126.41360486 -82.74975193 133.77245618 -79 141 C-79.61202169 137.42987349 -80.58470814 134.33009848 -82 131 C-86.84166829 119.60783932 -87.02052167 103.24642951 -83.1328125 91.5078125 C-80.83920045 86.43022995 -77.98975099 81.6934995 -75 77 C-75.33 76.67 -75.66 76.34 -76 76 C-77.79137632 54.08821053 -75.10398164 32.55898386 -61 15 C-45.51043367 -0.53650441 -21.02734169 -7.15486107 0 0 Z M-64 125 C-65.03727073 126.24059937 -66.03011216 127.51853905 -67 128.8125 C-67.53625 129.52019531 -68.0725 130.22789062 -68.625 130.95703125 C-71.29124822 134.91853074 -71.30586297 138.33558972 -71 143 C-70.16720631 145.76952321 -69.12537421 148.32723624 -68 151 C-67.34 150.67 -66.68 150.34 -66 150 C-65.73554618 147.47566809 -65.5814458 145.03134691 -65.5 142.5 C-65.22570553 136.44530335 -64.57467338 130.8787806 -63 125 C-63.33 125 -63.66 125 -64 125 Z M-89 142 C-89.33 142.66 -89.66 143.32 -90 144 C-89.67 144.66 -89.34 145.32 -89 146 C-88.34 146 -87.68 146 -87 146 C-86.835 146.680625 -86.67 147.36125 -86.5 148.0625 C-84.28698373 152.39632353 -80.74480511 154.97802936 -77 158 C-77 154.47967572 -77.70351351 153.5614657 -80 151 C-80.66 151 -81.32 151 -82 151 C-82.3403125 149.88625 -82.3403125 149.88625 -82.6875 148.75 C-84.24407532 145.48860409 -86.08518854 144.07105025 -89 142 Z M-66 151 C-66.33 151.66 -66.66 152.32 -67 153 C-66.10836423 155.11683841 -66.10836423 155.11683841 -65 157 C-64.67 156.01 -64.34 155.02 -64 154 C-64.66 153.01 -65.32 152.02 -66 151 Z M-64 157 C-63 159 -63 159 -63 159 Z " fill="#0F100F" transform="translate(234,67)"/>
<path d="M0 0 C0.7734375 0.71929687 1.546875 1.43859375 2.34375 2.1796875 C4.4535782 4.15649156 4.4535782 4.15649156 6.78125 5.7578125 C7.63203125 6.43457031 7.63203125 6.43457031 8.5 7.125 C8.5 7.785 8.5 8.445 8.5 9.125 C9.16 9.125 9.82 9.125 10.5 9.125 C13.04800506 11.59036706 15.23404729 14.40136972 17.5 17.125 C18.39912109 18.15947266 18.39912109 18.15947266 19.31640625 19.21484375 C39.14506393 42.76913649 49.47833449 70.13072762 54.5 100.125 C54.67273438 101.03451416 54.84546875 101.94402832 55.0234375 102.88110352 C57.64080763 120.69718802 56.71819544 141.65126983 52.5 159.125 C52.31195801 159.93582031 52.12391602 160.74664062 51.93017578 161.58203125 C45.74506155 187.52309907 33.54361615 211.40695264 15.5 231.125 C13.85 230.795 12.2 230.465 10.5 230.125 C9.76171875 228.453125 9.76171875 228.453125 9.5 226.125 C11.01953125 223.671875 11.01953125 223.671875 13.3125 220.875 C38.40095361 189.01405111 51.17555951 148.56976248 47.1953125 108.02099609 C43.80904226 80.84876893 35.12933073 56.22049192 19.49633789 33.74047852 C18.5 32.125 18.5 32.125 17.5 29.125 C16.84 29.125 16.18 29.125 15.5 29.125 C14.12751319 27.57184614 12.82521299 25.95614316 11.5625 24.3125 C8.81800332 20.72353733 8.81800332 20.72353733 5.74609375 17.42578125 C4.5 16.125 4.5 16.125 4.5 14.125 C3.84 14.125 3.18 14.125 2.5 14.125 C1.35253659 13.0123082 0.21212238 11.89171439 -0.8984375 10.7421875 C-27.99425949 -16.61798398 -66.66091407 -29.77184367 -104.5625 -30.0625 C-147.16646158 -29.93007206 -183.36510936 -14.68503058 -214.5 14.125 C-214.995 15.115 -214.995 15.115 -215.5 16.125 C-216.16 16.125 -216.82 16.125 -217.5 16.125 C-217.75910156 16.70894531 -218.01820313 17.29289062 -218.28515625 17.89453125 C-219.5901558 20.2905272 -221.03491068 21.86244483 -222.9375 23.8125 C-250.03540289 53.81199322 -260.24074036 95.63702239 -258.5 135.125 C-257.96586199 141.87521391 -256.86705065 148.49745158 -255.5 155.125 C-255.33902832 155.90649414 -255.17805664 156.68798828 -255.01220703 157.49316406 C-249.76888835 181.82095392 -238.51184189 204.26147606 -222.2421875 223.09375 C-220.5 225.125 -220.5 225.125 -218.5 228.125 C-218.875 230.8125 -218.875 230.8125 -219.5 233.125 C-221.28125 233.8046875 -221.28125 233.8046875 -223.5 234.125 C-234.69094596 227.25782861 -243.97899668 209.65712181 -249.5 198.125 C-250.01989502 197.04412109 -250.01989502 197.04412109 -250.55029297 195.94140625 C-262.90877005 170.03264927 -262.90877005 170.03264927 -262.5 158.125 C-263.16 158.125 -263.82 158.125 -264.5 158.125 C-266.18666366 146.73662369 -266.90318155 135.5717556 -266.875 124.0625 C-266.87478851 123.25817535 -266.87457703 122.45385071 -266.87435913 121.62515259 C-266.8391386 108.13836084 -265.82030033 95.24678292 -262.5 82.125 C-262.32339844 81.40731445 -262.14679688 80.68962891 -261.96484375 79.95019531 C-256.60501616 58.93768605 -245.78853802 36.60650309 -231.5 20.125 C-230.84 20.125 -230.18 20.125 -229.5 20.125 C-229.2525 19.568125 -229.005 19.01125 -228.75 18.4375 C-226.40677083 14.10252604 -223.1543411 10.41390699 -219.5 7.125 C-218.84 7.125 -218.18 7.125 -217.5 7.125 C-217.5 6.465 -217.5 5.805 -217.5 5.125 C-215.78667246 3.53966298 -214.00310953 2.02958785 -212.1875 0.5625 C-211.20136719 -0.24316406 -210.21523437 -1.04882812 -209.19921875 -1.87890625 C-206.5 -3.875 -206.5 -3.875 -203.5 -4.875 C-203.5 -5.535 -203.5 -6.195 -203.5 -6.875 C-180.53072931 -24.21484262 -152.94451848 -34.54570647 -124.5 -37.875 C-123.50097656 -38.00519531 -122.50195312 -38.13539062 -121.47265625 -38.26953125 C-78.09782183 -43.16142987 -32.46815702 -29.13206563 0 0 Z " fill="#0D0D0B" transform="translate(314.5,70.875)"/>
<path d="M0 0 C3.60401481 -0.08701039 7.20776012 -0.14039388 10.8125 -0.1875 C11.83666016 -0.21263672 12.86082031 -0.23777344 13.91601562 -0.26367188 C15.39038086 -0.27817383 15.39038086 -0.27817383 16.89453125 -0.29296875 C18.25348511 -0.31653442 18.25348511 -0.31653442 19.63989258 -0.34057617 C22.47900592 0.06912313 23.28211049 0.74982075 25 3 C25.95648068 5.02599999 26.81741018 7.09768424 27.625 9.1875 C27.8722583 9.82026855 28.1195166 10.45303711 28.37426758 11.10498047 C30.05495789 15.43776461 31.66946293 19.79498946 33.28515625 24.15234375 C33.68202637 25.22009033 34.07889648 26.28783691 34.48779297 27.38793945 C35.27743952 29.51857105 36.06176702 31.65118279 36.84033203 33.78588867 C37.20626465 34.77693604 37.57219727 35.7679834 37.94921875 36.7890625 C38.27237061 37.67287598 38.59552246 38.55668945 38.9284668 39.46728516 C40.40133262 42.94860437 41.83886777 46.10979863 44.875 48.4375 C47.7792482 49.20627158 49.30926482 48.17664162 52 47 C51.98061375 41.50000641 51.92900306 36.00162052 51.84741211 30.50219727 C51.8242051 28.63119262 51.80983005 26.76005683 51.80444336 24.88891602 C51.79517318 22.19984972 51.75422841 19.51285355 51.70703125 16.82421875 C51.7109639 15.98662521 51.71489655 15.14903168 51.71894836 14.28605652 C51.70816383 11.64713977 51.70816383 11.64713977 51 8 C48.62238192 5.86931994 48.62238192 5.86931994 46 5 C46.33 3.35 46.66 1.7 47 0 C52.10454178 -0.0746894 57.20875875 -0.12885461 62.3137207 -0.16479492 C64.04685006 -0.17979269 65.77994204 -0.20019772 67.51293945 -0.22631836 C70.01783525 -0.26310203 72.5222252 -0.27981651 75.02734375 -0.29296875 C75.79022202 -0.30845261 76.55310028 -0.32393646 77.33909607 -0.33988953 C84.20863037 -0.34199277 90.25144673 1.16763115 96 5 C96 5.66 96 6.32 96 7 C96.66 7 97.32 7 98 7 C100.12418941 11.24837883 100.72022448 15.32298674 100 20 C98.18785188 24.83892524 95.22235759 28.06780723 91 31 C92.77469011 37.92129142 96.21969129 44.30092245 102.375 48.0625 C103.24125 48.371875 104.1075 48.68125 105 49 C104.125 52.875 104.125 52.875 103 54 C100.10825409 54.20868269 97.27014331 54.32484791 94.375 54.375 C93.18197266 54.43107422 93.18197266 54.43107422 91.96484375 54.48828125 C86.73487644 54.56557141 83.38287769 53.74707787 79.28344727 50.41137695 C77.45487025 48.40053355 77.26873262 46.66665449 77 44 C75.61573965 41.29257878 75.61573965 41.29257878 73.9375 38.6875 C73.38964844 37.80449219 72.84179688 36.92148437 72.27734375 36.01171875 C71.85582031 35.34785156 71.43429688 34.68398438 71 34 C70.91885894 35.77007714 70.86074495 37.54122098 70.8125 39.3125 C70.77769531 40.29863281 70.74289063 41.28476562 70.70703125 42.30078125 C70.75692494 45.01924545 70.75692494 45.01924545 72.40625 46.75 C73.19515625 47.36875 73.19515625 47.36875 74 48 C75 49 76 50 77 51 C76.67 51.99 76.34 52.98 76 54 C66 54 56 54 46 54 C43.91651715 54.09306518 41.83321098 54.1900983 39.75 54.2890625 C37.16667132 54.40114907 34.58333777 54.51312317 32 54.625 C30.6903125 54.68945312 29.380625 54.75390625 28.03125 54.8203125 C26.7834375 54.871875 25.535625 54.9234375 24.25 54.9765625 C23.10015625 55.02893066 21.9503125 55.08129883 20.765625 55.13525391 C18 55 18 55 16 53 C16.375 50.875 16.375 50.875 17 49 C19.475 48.505 19.475 48.505 22 48 C21.22969878 44.51190809 21.22969878 44.51190809 20 41 C16.43954823 39.81318274 13.56191663 39.90310168 9.8125 39.9375 C8.54019531 39.94652344 7.26789063 39.95554687 5.95703125 39.96484375 C4.98121094 39.97644531 4.00539062 39.98804688 3 40 C3 42.31 3 44.62 3 47 C4.32 47.66 5.64 48.32 7 49 C7 50.65 7 52.3 7 54 C-0.59 54 -8.18 54 -16 54 C-16.495 52.515 -16.495 52.515 -17 51 C-15.27065785 49.17963985 -13.61672142 47.73042841 -11.55175781 46.27807617 C-8.54912586 43.5974831 -7.69165299 41.57566149 -6.359375 37.80078125 C-5.92882812 36.59099609 -5.49828125 35.38121094 -5.0546875 34.13476562 C-4.84038086 33.50610596 -4.62607422 32.87744629 -4.40527344 32.22973633 C-3.75575834 30.32934807 -3.07720051 28.43896732 -2.3984375 26.54882812 C-0.09838398 19.97276602 1.60764407 13.96431769 2 7 C1.01 6.34 0.02 5.68 -1 5 C-0.67 3.35 -0.34 1.7 0 0 Z M70 8 C70 13.94 70 19.88 70 26 C75.73445316 26.54626778 75.73445316 26.54626778 78.875 24.125 C81.49098868 20.27795783 81.52399405 17.84851092 81.46875 13.3046875 C81.12543034 11.00085838 81.12543034 11.00085838 79.96875 9.1953125 C77.24415064 7.30802915 77.24415064 7.30802915 70 8 Z M11 17 C10.32739649 18.76858691 9.66211605 20.53996016 9 22.3125 C8.62875 23.29863281 8.2575 24.28476562 7.875 25.30078125 C6.84581498 28.00271656 6.84581498 28.00271656 7 31 C9.97 31 12.94 31 16 31 C15.36843005 25.94744036 13.86540627 21.70406799 12 17 C11.67 17 11.34 17 11 17 Z " fill="#10100F" transform="translate(166,316)"/>
<path d="M0 0 C4.73322425 1.38698989 9.19108003 0.66672147 14 -0.0625 C14.6986179 2.85190599 15.3842031 5.76836087 16.0625 8.6875 C16.26166016 9.5125 16.46082031 10.3375 16.66601562 11.1875 C16.94155273 12.38632812 16.94155273 12.38632812 17.22265625 13.609375 C17.39547119 14.3425293 17.56828613 15.07568359 17.74633789 15.83105469 C18.02424428 18.13882783 17.69809241 19.73666037 17 21.9375 C14.4375 22.5 14.4375 22.5 11 21.9375 C9.01959985 19.82418709 7.40444365 17.55501467 5.7109375 15.20703125 C3.43539039 12.18855438 1.44140348 10.5205456 -2 8.9375 C-6.26743676 8.43804096 -9.91822849 8.5769095 -14 9.9375 C-15.16953416 12.36133077 -15.16953416 12.36133077 -16 14.9375 C-16.33 15.5975 -16.66 16.2575 -17 16.9375 C-17.97134912 26.52803559 -18.40423593 36.72397966 -13.484375 45.2578125 C-11.78199244 47.18419276 -10.39514321 48.02660577 -8 48.9375 C-3.8492571 49.22491142 -3.8492571 49.22491142 0 47.9375 C0.28783441 44.22763428 0.45251957 40.63751295 0 36.9375 C-2.2788824 34.18979728 -2.2788824 34.18979728 -5 32.9375 C-4.67 31.2875 -4.34 29.6375 -4 27.9375 C4.58 27.9375 13.16 27.9375 22 27.9375 C22.495 30.4125 22.495 30.4125 23 32.9375 C21.68 33.5975 20.36 34.2575 19 34.9375 C19.01571045 35.87601807 19.01571045 35.87601807 19.03173828 36.83349609 C19.07323191 39.6597901 19.09930473 42.48602011 19.125 45.3125 C19.14175781 46.29734375 19.15851563 47.2821875 19.17578125 48.296875 C19.18544922 49.70839844 19.18544922 49.70839844 19.1953125 51.1484375 C19.21102295 52.45240479 19.21102295 52.45240479 19.22705078 53.78271484 C19 55.9375 19 55.9375 17 57.9375 C14.86328125 57.84375 14.86328125 57.84375 12.3125 57.4375 C8.91794966 57.01740629 7.09023377 56.91147103 3.75 57.875 C-5.07758426 60.37614887 -15.67691551 60.04124305 -24 55.9375 C-30.80586211 51.2584698 -35.9497078 45.46776088 -37.6796875 37.1953125 C-39.05045796 27.53305245 -37.93702377 18.924632 -32.4921875 10.64453125 C-24.44349398 0.66789486 -12.44925694 -3.74489843 0 0 Z " fill="#0F100F" transform="translate(133,249.0625)"/>
<path d="M0 0 C3.22899426 -0.0875127 6.45768116 -0.14056146 9.6875 -0.1875 C11.05551758 -0.22520508 11.05551758 -0.22520508 12.45117188 -0.26367188 C13.33740234 -0.27333984 14.22363281 -0.28300781 15.13671875 -0.29296875 C15.94842529 -0.3086792 16.76013184 -0.32438965 17.59643555 -0.34057617 C20.73450294 0.10407634 22.49482959 1.06287764 25 3 C26.29858398 5.3815918 26.29858398 5.3815918 27.24609375 8.19921875 C27.60566162 9.2365918 27.96522949 10.27396484 28.33569336 11.34277344 C28.69928955 12.4465332 29.06288574 13.55029297 29.4375 14.6875 C30.21793136 16.95731289 30.99918214 19.2268442 31.78125 21.49609375 C32.15765625 22.60581543 32.5340625 23.71553711 32.921875 24.85888672 C34.34989554 29.01941938 35.8757459 33.13815935 37.4375 37.25 C37.88996094 38.45140625 38.34242188 39.6528125 38.80859375 40.890625 C39.39833984 42.42976563 39.39833984 42.42976563 40 44 C40.31839844 44.93714844 40.63679688 45.87429688 40.96484375 46.83984375 C41.87604073 49.35483938 41.87604073 49.35483938 45.125 50.3125 C46.07375 50.539375 47.0225 50.76625 48 51 C48 52.65 48 54.3 48 56 C45.12981559 57.43509221 42.66456277 57.11158506 39.4609375 57.09765625 C38.15898437 57.09443359 36.85703125 57.09121094 35.515625 57.08789062 C34.13541601 57.07953466 32.75520768 57.07106971 31.375 57.0625 C29.98698074 57.05748501 28.59895978 57.0529221 27.2109375 57.04882812 C23.80724868 57.03700976 20.40364561 57.02053434 17 57 C16.67 55.35 16.34 53.7 16 52 C17.32 51.01 18.64 50.02 20 49 C19.505 45.535 19.505 45.535 19 42 C13.39 41.67 7.78 41.34 2 41 C2 47.50866855 2.31165213 47.47879939 6 52 C5.81190541 54.25713514 5.60454441 55.39545559 4 57 C2.43827255 57.08685603 0.87270656 57.10702219 -0.69140625 57.09765625 C-1.63564453 57.09443359 -2.57988281 57.09121094 -3.55273438 57.08789062 C-4.54595703 57.07951172 -5.53917969 57.07113281 -6.5625 57.0625 C-7.55958984 57.05798828 -8.55667969 57.05347656 -9.58398438 57.04882812 C-12.05604849 57.03700007 -14.52799518 57.02051849 -17 57 C-17.60546875 55.125 -17.60546875 55.125 -18 53 C-16.18928501 50.85396742 -14.18176505 49.15446509 -12.04614258 47.33959961 C-9.45404255 44.37574153 -8.25448302 41.21884426 -6.94921875 37.56640625 C-6.55462212 36.49397926 -6.55462212 36.49397926 -6.15205383 35.39988708 C-5.60125386 33.89320829 -5.05612309 32.38444625 -4.51635742 30.8737793 C-3.68920508 28.56725465 -2.83716193 26.27103228 -1.98242188 23.97460938 C-1.44899684 22.50576089 -0.91704527 21.03637629 -0.38671875 19.56640625 C-0.13162033 18.88292618 0.12347809 18.19944611 0.38630676 17.49525452 C1.74152986 13.63723626 2.40525792 10.90644862 1 7 C0.34 6.34 -0.32 5.68 -1 5 C-0.625 2.375 -0.625 2.375 0 0 Z M10 16 C9.16301614 18.45714547 8.33027576 20.91558857 7.5 23.375 C7.26152344 24.07367188 7.02304688 24.77234375 6.77734375 25.4921875 C5.46264088 29.16403079 5.46264088 29.16403079 5 33 C8.63 33 12.26 33 16 33 C15.54619105 31.10307857 15.08675008 29.20750405 14.625 27.3125 C14.36976563 26.25675781 14.11453125 25.20101563 13.8515625 24.11328125 C13.08094511 21.29593234 12.14501457 18.68331675 11 16 C10.67 16 10.34 16 10 16 Z " fill="#10100F" transform="translate(175,250)"/>
<path d="M0 0 C0.9075 -0.020625 1.815 -0.04125 2.75 -0.0625 C11.82594902 -0.11557573 11.82594902 -0.11557573 15.25 3.25 C16.65107903 6.02535069 17.53275742 8.90659226 18.4375 11.875 C19.02923652 13.67079899 19.62584308 15.46499843 20.2265625 17.2578125 C20.54657227 18.21848633 20.86658203 19.17916016 21.19628906 20.16894531 C23.10397864 25.74703672 25.18556563 31.25238489 27.3125 36.75 C27.91130981 38.36962646 27.91130981 38.36962646 28.5222168 40.02197266 C30.83095233 45.92974376 32.41347952 49.47151129 38.25 52.25 C37.375 56.125 37.375 56.125 36.25 57.25 C34.10441173 57.33775605 31.95595579 57.35695219 29.80859375 57.34765625 C28.50341797 57.34443359 27.19824219 57.34121094 25.85351562 57.33789062 C24.4648431 57.32953401 23.07617123 57.32106905 21.6875 57.3125 C20.29492344 57.30748666 18.90234519 57.30292347 17.50976562 57.29882812 C14.0898013 57.28699434 10.66992156 57.2705088 7.25 57.25 C6.755 55.27 6.755 55.27 6.25 53.25 C7.57 52.26 8.89 51.27 10.25 50.25 C9.755 46.29 9.755 46.29 9.25 42.25 C3.97 42.25 -1.31 42.25 -6.75 42.25 C-7.08 44.23 -7.41 46.21 -7.75 48.25 C-6.5125 49.11625 -6.5125 49.11625 -5.25 50 C-4.0125 51.11375 -4.0125 51.11375 -2.75 52.25 C-2.75 53.57 -2.75 54.89 -2.75 56.25 C-5.20275141 57.4763757 -6.8005781 57.36415314 -9.5390625 57.34765625 C-10.48007812 57.34443359 -11.42109375 57.34121094 -12.390625 57.33789062 C-13.37546875 57.32951172 -14.3603125 57.32113281 -15.375 57.3125 C-16.86386719 57.30573242 -16.86386719 57.30573242 -18.3828125 57.29882812 C-20.8386016 57.28702145 -23.29427104 57.270554 -25.75 57.25 C-26.08 55.6 -26.41 53.95 -26.75 52.25 C-25.28515625 51.14322917 -23.8203125 50.03645833 -22.35546875 48.9296875 C-17.55066178 43.9027605 -15.88293248 36.19373689 -13.6875 29.75 C-13.33623047 28.73035156 -12.98496094 27.71070313 -12.62304688 26.66015625 C-11.95088815 24.70594052 -11.28224058 22.75051238 -10.61767578 20.79370117 C-9.92373708 18.75933221 -9.20938636 16.73193011 -8.48828125 14.70703125 C-7.61704715 11.80752727 -7.77294711 10.09973758 -8.75 7.25 C-9.41 6.92 -10.07 6.59 -10.75 6.25 C-10.792721 4.58388095 -10.79063832 2.91617115 -10.75 1.25 C-8.46239144 -1.03760856 -3.06971679 0.01714926 0 0 Z M0.25 17.25 C-0.40043719 18.97744016 -1.04514844 20.7070369 -1.6875 22.4375 C-2.04714844 23.40042969 -2.40679687 24.36335938 -2.77734375 25.35546875 C-3.92088849 28.55652364 -3.92088849 28.55652364 -4.75 33.25 C-1.12 33.25 2.51 33.25 6.25 33.25 C5.47181136 29.35905678 4.56126232 26.11563783 3.1875 22.4375 C2.82527344 21.46167969 2.46304687 20.48585938 2.08984375 19.48046875 C1.81269531 18.74441406 1.53554688 18.00835937 1.25 17.25 C0.92 17.25 0.59 17.25 0.25 17.25 Z " fill="#10100F" transform="translate(283.75,249.75)"/>
<path d="M0 0 C14.19 0 28.38 0 43 0 C46.375 7.875 46.375 7.875 46.6875 12.4375 C46.75324219 13.30246094 46.81898438 14.16742188 46.88671875 15.05859375 C46.94279297 16.01958984 46.94279297 16.01958984 47 17 C45.35 17.66 43.7 18.32 42 19 C40.06624118 17.25040869 38.82975266 15.7091608 37.5 13.4375 C36.08195341 10.75281489 36.08195341 10.75281489 33 9 C30.48415109 8.75849227 30.48415109 8.75849227 27.8125 8.875 C26.224375 8.91625 24.63625 8.9575 23 9 C23 13.62 23 18.24 23 23 C28.74772619 21.59534459 28.74772619 21.59534459 31.125 18.8125 C31.74375 18.214375 32.3625 17.61625 33 17 C35.21844626 17.19015254 36.41522155 17.41522155 38 19 C38.08651611 20.41570123 38.10704904 21.835595 38.09765625 23.25390625 C38.09443359 24.10791016 38.09121094 24.96191406 38.08789062 25.84179688 C38.07532227 27.18854492 38.07532227 27.18854492 38.0625 28.5625 C38.05798828 29.46419922 38.05347656 30.36589844 38.04882812 31.29492188 C38.03700225 33.53001314 38.0205222 35.76497437 38 38 C35.62109375 38.18359375 35.62109375 38.18359375 33 38 C32.360625 37.030625 31.72125 36.06125 31.0625 35.0625 C29.28086854 31.69470526 29.28086854 31.69470526 25.75 31.125 C24.8425 31.08375 23.935 31.0425 23 31 C23.12568359 31.99580078 23.12568359 31.99580078 23.25390625 33.01171875 C24.26537786 41.78207381 24.26537786 41.78207381 23 46 C28.48375202 46.3427345 33.23583252 45.9547463 38 43 C40.30937604 40.51411115 42.19945479 37.87132399 44 35 C45.65 35.33 47.3 35.66 49 36 C50.4892166 39.9007867 49.49730834 42.72262011 48.3125 46.625 C47.97863281 47.77226562 47.64476562 48.91953125 47.30078125 50.1015625 C46 53 46 53 44.18804932 54.17269897 C41.82231463 55.06718281 40.20794329 55.21108263 37.69042969 55.13525391 C36.4295755 55.10499619 36.4295755 55.10499619 35.14324951 55.0741272 C34.24519592 55.04193085 33.34714233 55.0097345 32.421875 54.9765625 C31.03201385 54.93902359 31.03201385 54.93902359 29.61407471 54.90072632 C26.65900399 54.81865313 23.70461426 54.72201432 20.75 54.625 C18.74481935 54.5667475 16.73961087 54.50944449 14.734375 54.453125 C9.82252605 54.31309308 4.91123749 54.15999782 0 54 C-0.33 52.68 -0.66 51.36 -1 50 C2.75 47 2.75 47 5 47 C4.67 34.13 4.34 21.26 4 8 C2.68 7.34 1.36 6.68 0 6 C0 4.02 0 2.04 0 0 Z " fill="#10100F" transform="translate(273,316)"/>
<path d="M0 0 C3.26350204 0.40793776 5.34392299 0.08728056 8.5 -0.5625 C11.49628539 2.43378539 11.2249286 6.02243471 11.625 10.0625 C11.71136719 10.86429687 11.79773438 11.66609375 11.88671875 12.4921875 C12.09896327 14.47313635 12.30049931 16.45522718 12.5 18.4375 C9.5 20.4375 9.5 20.4375 7.1875 20.5625 C3.51487963 19.02512403 2.11163912 16.59699502 -0.0703125 13.34765625 C-1.52921255 11.17698599 -1.52921255 11.17698599 -4.5 9.4375 C-10.60961897 9.08219689 -10.60961897 9.08219689 -16.5 10.4375 C-20.78068123 17.16200298 -20.40318329 26.6065196 -18.99609375 34.1328125 C-17.67284911 38.91414068 -17.67284911 38.91414068 -13.9375 41.9375 C-13.133125 42.1025 -12.32875 42.2675 -11.5 42.4375 C-10.84 42.7675 -10.18 43.0975 -9.5 43.4375 C-3.39314771 43.94640436 -0.37040228 43.5150461 4.5 39.4375 C5.2734375 38.32375 5.2734375 38.32375 6.0625 37.1875 C7.5 35.4375 7.5 35.4375 10.0625 35.0625 C12.5 35.4375 12.5 35.4375 14.5 37.4375 C14.18031589 41.38027072 12.78521123 44.23820428 10.5 47.4375 C9.84 47.4375 9.18 47.4375 8.5 47.4375 C8.5 48.0975 8.5 48.7575 8.5 49.4375 C1.91076524 54.90516288 -5.10033004 56.73459397 -13.5 56.3125 C-18.91898937 55.71947852 -22.97780439 54.46208538 -27.5 51.4375 C-28.11617187 51.04949219 -28.73234375 50.66148437 -29.3671875 50.26171875 C-35.16285617 46.04555635 -37.63957937 40.22062653 -39.5 33.4375 C-40.84776308 24.07409337 -38.61349032 16.70648361 -33.875 8.6875 C-23.94746956 -0.71752884 -13.15867797 -1.93362253 0 0 Z " fill="#0F100F" transform="translate(136.5,315.5625)"/>
<path d="M0 0 C1.11503906 -0.01224609 2.23007813 -0.02449219 3.37890625 -0.03710938 C4.44753906 -0.03904297 5.51617187 -0.04097656 6.6171875 -0.04296875 C8.09227783 -0.04913208 8.09227783 -0.04913208 9.59716797 -0.05541992 C12.125 0.1875 12.125 0.1875 15.125 2.1875 C13.97326645 4.65550047 13.07716435 6.23533565 11.125 8.1875 C9.10922157 13.67903463 9.93906026 20.10313468 9.93969727 25.88647461 C9.93751083 28.11396392 9.91933572 30.34095758 9.90039062 32.56835938 C9.89745622 33.99218582 9.89547174 35.4160146 9.89453125 36.83984375 C9.88836792 38.77331665 9.88836792 38.77331665 9.88208008 40.74584961 C10.16893387 44.80994798 10.7613985 47.87634471 13.75 50.75 C15.125 52.1875 15.125 52.1875 15.125 56.1875 C12.46321779 57.5183911 10.43760604 57.30018993 7.4609375 57.28515625 C6.33945313 57.28193359 5.21796875 57.27871094 4.0625 57.27539062 C2.886875 57.26701172 1.71125 57.25863281 0.5 57.25 C-0.68335938 57.24548828 -1.86671875 57.24097656 -3.0859375 57.23632812 C-6.01567507 57.22451467 -8.94531272 57.20804258 -11.875 57.1875 C-12.535 55.8675 -13.195 54.5475 -13.875 53.1875 C-13.0607959 52.37434326 -12.2465918 51.56118652 -11.40771484 50.72338867 C-8.18131556 46.83035386 -8.20708358 43.5140435 -8.3515625 38.61328125 C-8.35626556 37.80763229 -8.36096863 37.00198334 -8.36581421 36.17192078 C-8.38705565 33.61372217 -8.4436187 31.05763905 -8.5 28.5 C-8.516519 26.77020187 -8.530864 25.04038153 -8.54296875 23.31054688 C-8.37891149 15.12631746 -8.37891149 15.12631746 -9.875 7.1875 C-11.87516466 5.97867904 -11.87516466 5.97867904 -13.875 5.1875 C-12.21736958 -2.15343472 -6.63704303 0.00381001 0 0 Z " fill="#101010" transform="translate(239.875,249.8125)"/>
<path d="M0 0 C5.23273331 -0.04935824 10.46533176 -0.08569949 15.69824219 -0.10986328 C17.47919067 -0.11993431 19.26012257 -0.13359185 21.04101562 -0.15087891 C23.59769783 -0.17507913 26.15416185 -0.18647184 28.7109375 -0.1953125 C29.90944839 -0.21079636 29.90944839 -0.21079636 31.13217163 -0.22659302 C33.0895722 -0.22699226 35.04643077 -0.12241069 37 0 C37.66 0.66 38.32 1.32 39 2 C35.36766898 3.21077701 32.04878013 3.12444164 28.26953125 3.09765625 C27.51911057 3.0962413 26.76868988 3.09482635 25.99552917 3.09336853 C23.6011454 3.0877756 21.20685547 3.07522444 18.8125 3.0625 C17.18815239 3.05748408 15.56380332 3.05292134 13.93945312 3.04882812 C9.95959931 3.03780848 5.97981556 3.02054873 2 3 C2.81275391 3.31211426 3.62550781 3.62422852 4.46289062 3.94580078 C7 6 7 6 7.61523438 9.93310547 C7.63474275 11.57769937 7.6257018 13.22278829 7.59375 14.8671875 C7.59379028 15.73892609 7.59383057 16.61066467 7.59387207 17.50881958 C7.58851067 19.35312097 7.57090134 21.19742131 7.54199219 23.04150391 C7.50025474 25.85781115 7.50091278 28.6717179 7.5078125 31.48828125 C7.49731561 33.28126655 7.48437482 35.07423955 7.46875 36.8671875 C7.46854858 37.70692108 7.46834717 38.54665466 7.46813965 39.41183472 C7.3653264 44.52132781 6.79101737 48.20898263 3 52 C8.28 52.33 13.56 52.66 19 53 C19 53.33 19 53.66 19 54 C13.06 54 7.12 54 1 54 C0.505 52.515 0.505 52.515 0 51 C-0.66 51 -1.32 51 -2 51 C-1 49 -1 49 2.0625 47.875 C3.5165625 47.441875 3.5165625 47.441875 5 47 C4.98061375 41.50000641 4.92900306 36.00162052 4.84741211 30.50219727 C4.8242051 28.63119262 4.80983005 26.76005683 4.80444336 24.88891602 C4.79517318 22.19984972 4.75422841 19.51285355 4.70703125 16.82421875 C4.7109639 15.98662521 4.71489655 15.14903168 4.71894836 14.28605652 C4.70816383 11.64713977 4.70816383 11.64713977 4 8 C1.62238192 5.86931994 1.62238192 5.86931994 -1 5 C-0.67 3.35 -0.34 1.7 0 0 Z " fill="#030301" transform="translate(213,316)"/>
<path d="M0 0 C6.08721231 -0.07401212 12.17416426 -0.12853646 18.26171875 -0.16479492 C20.33370524 -0.17990586 22.40565963 -0.20039541 24.47753906 -0.22631836 C27.45125233 -0.26260051 30.42454373 -0.27970298 33.3984375 -0.29296875 C34.32868744 -0.30845261 35.25893738 -0.32393646 36.21737671 -0.33988953 C37.07811798 -0.34011612 37.93885925 -0.34034271 38.82568359 -0.34057617 C39.58513275 -0.34723801 40.34458191 -0.35389984 41.12704468 -0.36076355 C41.74511993 -0.24171158 42.36319519 -0.12265961 43 0 C45 3 45 3 44.625 5.1875 C44.41875 5.785625 44.2125 6.38375 44 7 C43.34 5.68 42.68 4.36 42 3 C28.8 3 15.6 3 2 3 C2.99 3.66 3.98 4.32 5 5 C5 5.66 5 6.32 5 7 C5.66 7 6.32 7 7 7 C7.04940929 12.49925421 7.08572395 17.99837942 7.10986328 23.49780273 C7.11992567 25.36891938 7.13357691 27.24002028 7.15087891 29.11108398 C7.17511684 31.79935591 7.18648063 34.48742006 7.1953125 37.17578125 C7.20563507 38.01337479 7.21595764 38.85096832 7.22659302 39.71394348 C7.22774341 45.65838488 7.22774341 45.65838488 5 49 C3.515 49.495 3.515 49.495 2 50 C2 51.32 2 52.64 2 54 C1.34 54 0.68 54 0 54 C-0.33 52.68 -0.66 51.36 -1 50 C2.75 47 2.75 47 5 47 C4.67 34.13 4.34 21.26 4 8 C2.68 7.34 1.36 6.68 0 6 C0 4.02 0 2.04 0 0 Z " fill="#020301" transform="translate(273,316)"/>
<path d="M0 0 C1.21042969 -0.020625 2.42085937 -0.04125 3.66796875 -0.0625 C4.82683594 -0.06765625 5.98570312 -0.0728125 7.1796875 -0.078125 C8.24687012 -0.0874707 9.31405273 -0.09681641 10.41357422 -0.10644531 C13.125 0.25 13.125 0.25 14.99658203 1.77050781 C15.36895996 2.25874023 15.74133789 2.74697266 16.125 3.25 C10.88217359 6.058657 6.41421369 6.39107432 0.515625 6.34765625 C-0.21118469 6.3462413 -0.93799438 6.34482635 -1.68682861 6.34336853 C-3.99959494 6.33778792 -6.31226312 6.32523904 -8.625 6.3125 C-10.19661318 6.30748249 -11.76822789 6.30292002 -13.33984375 6.29882812 C-17.18493343 6.28782485 -21.0299501 6.27057361 -24.875 6.25 C-25.205 5.26 -25.535 4.27 -25.875 3.25 C-23.15794375 2.45752526 -20.49149746 2.06714873 -17.6875 1.75 C-4.48862083 0.01899945 -4.48862083 0.01899945 0 0 Z " fill="#111111" transform="translate(204.875,33.75)"/>
<path d="M0 0 C0 0.33 0 0.66 0 1 C-7.12575346 2.12465653 -14.1104292 2.08006749 -21.3125 2 C-23.64188098 1.97452837 -25.97131583 1.95348261 -28.30078125 1.9375 C-29.83472534 1.92009766 -29.83472534 1.92009766 -31.3996582 1.90234375 C-34.11523502 1.8826327 -34.11523502 1.8826327 -37 3 C-38.55853267 3.21803307 -40.12182651 3.40366356 -41.6875 3.5625 C-42.49574219 3.64628906 -43.30398437 3.73007812 -44.13671875 3.81640625 C-45.05904297 3.90728516 -45.05904297 3.90728516 -46 4 C-46 4.99 -46 5.98 -46 7 C-44.948125 6.835 -43.89625 6.67 -42.8125 6.5 C-36.89421488 5.74288605 -30.95478821 5.91830321 -25 6 C-27.96339597 8.96339597 -31.37942626 8.52100302 -35.375 8.8125 C-45.90472824 9.72422659 -55.83464504 12.19354795 -66 15 C-65.67 14.01 -65.34 13.02 -65 12 C-63.68 12 -62.36 12 -61 12 C-60.67 11.34 -60.34 10.68 -60 10 C-59.34 10.33 -58.68 10.66 -58 11 C-57.67 10.34 -57.34 9.68 -57 9 C-54.4375 8.375 -54.4375 8.375 -52 8 C-51.67 6.35 -51.34 4.7 -51 3 C-45.91063656 1.04318498 -41.06968511 0.3791265 -35.6875 -0.125 C-34.81319336 -0.20919189 -33.93888672 -0.29338379 -33.03808594 -0.38012695 C-21.96830092 -1.36871525 -11.02689186 -1.53151276 0 0 Z " fill="#080906" transform="translate(226,33)"/>
<path d="M0 0 C0.66 0.66 1.32 1.32 2 2 C0.125 7.75 0.125 7.75 -1 10 C-0.01 9.34 0.98 8.68 2 8 C2.99 8 3.98 8 5 8 C5.33 6.35 5.66 4.7 6 3 C7.32 3 8.64 3 10 3 C10.99862559 5.22509293 11.99185861 7.45229664 12.9765625 9.68359375 C13.72462856 11.37673563 14.48403608 13.06487937 15.25 14.75 C16 17 16 17 16 22 C11.05 22 6.1 22 1 22 C1.33 20.35 1.66 18.7 2 17 C1.16666667 14.83333333 1.16666667 14.83333333 -1 14 C-0.34 14 0.32 14 1 14 C0.67 13.67 0.34 13.34 0 13 C-2.05396726 13.40929986 -2.05396726 13.40929986 -4 14 C-3.79503906 13.32453125 -3.59007812 12.6490625 -3.37890625 11.953125 C-3.10949219 11.06109375 -2.84007812 10.1690625 -2.5625 9.25 C-2.16224609 7.92742187 -2.16224609 7.92742187 -1.75390625 6.578125 C-1.11531506 4.39434165 -0.53224167 2.21164502 0 0 Z M8 5 C7.34956281 6.72744016 6.70485156 8.4570369 6.0625 10.1875 C5.70285156 11.15042969 5.34320313 12.11335938 4.97265625 13.10546875 C3.82911151 16.30652364 3.82911151 16.30652364 3 21 C6.63 21 10.26 21 14 21 C13.22181136 17.10905678 12.31126232 13.86563783 10.9375 10.1875 C10.57527344 9.21167969 10.21304687 8.23585938 9.83984375 7.23046875 C9.56269531 6.49441406 9.28554688 5.75835937 9 5 C8.67 5 8.34 5 8 5 Z " fill="#0D0D0A" transform="translate(276,262)"/>
<path d="M0 0 C0.33 0.66 0.66 1.32 1 2 C3.01669827 3.13350534 3.01669827 3.13350534 5 4 C5 4.66 5 5.32 5 6 C5.57234375 6.06574219 6.1446875 6.13148438 6.734375 6.19921875 C9.91493327 7.32338159 11.17358635 9.18622125 13.25 11.8125 C13.95640625 12.68519531 14.6628125 13.55789063 15.390625 14.45703125 C17 17 17 17 17 21 C11.36998345 20.37444261 9.36378894 17.69440445 5.9375 13.4375 C5.298125 12.633125 4.65875 11.82875 4 11 C3.13375 10.1646875 3.13375 10.1646875 2.25 9.3125 C1 8 1 8 1 6 C0.34 5.67 -0.32 5.34 -1 5 C-1.625 2.9375 -1.625 2.9375 -2 1 C-1.34 0.67 -0.68 0.34 0 0 Z " fill="#101010" transform="translate(79,282)"/>
<path d="M0 0 C3.93743833 -0.05797565 7.87476719 -0.09358789 11.8125 -0.125 C12.93205078 -0.14175781 14.05160156 -0.15851563 15.20507812 -0.17578125 C16.27822266 -0.18222656 17.35136719 -0.18867188 18.45703125 -0.1953125 C19.9416687 -0.21102295 19.9416687 -0.21102295 21.45629883 -0.22705078 C24 0 24 0 27 2 C25.84826645 4.46800047 24.95216435 6.04783565 23 8 C21.68451773 12.0238587 21.87415277 16.07729767 21.90234375 20.265625 C21.90446617 21.45572174 21.90446617 21.45572174 21.90663147 22.66986084 C21.91221585 25.19661272 21.92476546 27.72327504 21.9375 30.25 C21.94251702 31.96614455 21.94707957 33.68229049 21.95117188 35.3984375 C21.96218016 39.59899269 21.97943404 43.79948117 22 48 C19.30706457 45.30706457 19.76157997 43.23193353 19.74775696 39.5736084 C19.75494247 38.69338013 19.76212799 37.81315186 19.76953125 36.90625 C19.76998947 36.0037854 19.77044769 35.1013208 19.7709198 34.17150879 C19.7739436 32.26162401 19.78183369 30.35174173 19.79418945 28.44189453 C19.81242559 25.51195578 19.8146993 22.58233328 19.81445312 19.65234375 C19.81936903 17.79947642 19.82519767 15.94661125 19.83203125 14.09375 C19.83314407 13.21352173 19.8342569 12.33329346 19.83540344 11.4263916 C19.8839374 5.23212519 19.8839374 5.23212519 21 3 C17.04 3 13.08 3 9 3 C9 2.34 9 1.68 9 1 C6.03 1 3.06 1 0 1 C0 0.67 0 0.34 0 0 Z " fill="#060704" transform="translate(228,250)"/>
<path d="M0 0 C0.33 0.66 0.66 1.32 1 2 C2.98 2 4.96 2 7 2 C7 1.34 7 0.68 7 0 C7.94875 0.350625 8.8975 0.70125 9.875 1.0625 C12.87060172 2.35026777 12.87060172 2.35026777 15 1 C17.8203125 2.21484375 17.8203125 2.21484375 21.125 3.9375 C22.76855469 4.78634766 22.76855469 4.78634766 24.4453125 5.65234375 C25.70988281 6.31943359 25.70988281 6.31943359 27 7 C26.34 7.66 25.68 8.32 25 9 C23.9275 8.525625 22.855 8.05125 21.75 7.5625 C19.19160135 6.46233668 16.74164983 5.54832997 14 5 C14 5.66 14 6.32 14 7 C15.3303125 7.6496875 15.3303125 7.6496875 16.6875 8.3125 C19.55609281 9.7738586 22.3335542 11.19622784 25 13 C25 13.66 25 14.32 25 15 C19.99893519 13.10659275 15.20297634 10.7896312 10.375 8.5 C9.51648438 8.09652344 8.65796875 7.69304688 7.7734375 7.27734375 C6.9484375 6.88675781 6.1234375 6.49617188 5.2734375 6.09375 C4.15074463 5.56297852 4.15074463 5.56297852 3.00537109 5.02148438 C1 4 1 4 -2 2 C-1.34 2 -0.68 2 0 2 C0 1.34 0 0.68 0 0 Z " fill="#080906" transform="translate(265,47)"/>
<path d="M0 0 C3.26350204 0.40793776 5.34392299 0.08728056 8.5 -0.5625 C11.49628539 2.43378539 11.2249286 6.02243471 11.625 10.0625 C11.71136719 10.86429687 11.79773438 11.66609375 11.88671875 12.4921875 C12.09896327 14.47313635 12.30049931 16.45522718 12.5 18.4375 C9.5 20.4375 9.5 20.4375 7 20.4375 C4.5 19.4375 4.5 19.4375 2.6875 16.375 C2.295625 15.405625 1.90375 14.43625 1.5 13.4375 C2.16 13.4375 2.82 13.4375 3.5 13.4375 C4.83333333 14.77083333 6.16666667 16.10416667 7.5 17.4375 C8.49 17.7675 9.48 18.0975 10.5 18.4375 C10.04177532 14.96808454 9.60868317 11.76354951 8.5 8.4375 C8.46045766 6.10450175 8.45598268 3.77041811 8.5 1.4375 C7.93410156 1.59992188 7.36820313 1.76234375 6.78515625 1.9296875 C4.42825745 2.45344279 2.34837338 2.57065862 -0.0625 2.5625 C-0.82691406 2.56507813 -1.59132812 2.56765625 -2.37890625 2.5703125 C-4.5 2.4375 -4.5 2.4375 -7.5 1.4375 C-10.09069971 1.68382882 -12.61836247 1.98878978 -15.1875 2.375 C-15.88939453 2.47490234 -16.59128906 2.57480469 -17.31445312 2.67773438 C-19.04386527 2.92479325 -20.7720627 3.18032852 -22.5 3.4375 C-22.83 2.7775 -23.16 2.1175 -23.5 1.4375 C-15.88465837 -1.45541506 -7.99544497 -1.15523539 0 0 Z " fill="#030401" transform="translate(136.5,315.5625)"/>
<path d="M0 0 C0.66 0 1.32 0 2 0 C2 1.65 2 3.3 2 5 C2.66 5.33 3.32 5.66 4 6 C2.75023244 9.65316671 2.32901247 10.78065836 -1 13 C-1 13.66 -1 14.32 -1 15 C11.375 14.505 11.375 14.505 24 14 C24 13.34 24 12.68 24 12 C23.34 11.67 22.68 11.34 22 11 C22.33 10.34 22.66 9.68 23 9 C24.65 9.99 26.3 10.98 28 12 C27.125 15.875 27.125 15.875 26 17 C23.85441173 17.08775605 21.70595579 17.10695219 19.55859375 17.09765625 C18.25341797 17.09443359 16.94824219 17.09121094 15.60351562 17.08789062 C14.2148431 17.07953401 12.82617123 17.07106905 11.4375 17.0625 C10.04492344 17.05748666 8.65234519 17.05292347 7.25976562 17.04882812 C3.8398013 17.03699434 0.41992156 17.0205088 -3 17 C-3.33 15.68 -3.66 14.36 -4 13 C-3.319375 12.690625 -2.63875 12.38125 -1.9375 12.0625 C0.24569453 10.20827656 0.24569453 10.20827656 0.0078125 7.83203125 C-0.2045337 6.20318053 -0.45296492 4.57860254 -0.73828125 2.9609375 C-0.82464844 2.31382812 -0.91101563 1.66671875 -1 1 C-0.67 0.67 -0.34 0.34 0 0 Z " fill="#040502" transform="translate(294,290)"/>
<path d="M0 0 C0.66 0.33 1.32 0.66 2 1 C1.34 3.31 0.68 5.62 0 8 C-0.66 8 -1.32 8 -2 8 C-2.27585937 8.56203125 -2.55171875 9.1240625 -2.8359375 9.703125 C-4.04368028 12.08618794 -5.32176809 14.4179008 -6.625 16.75 C-7.07101562 17.54921875 -7.51703125 18.3484375 -7.9765625 19.171875 C-8.31429688 19.77515625 -8.65203125 20.3784375 -9 21 C-9.66 21 -10.32 21 -11 21 C-11.33 21.66 -11.66 22.32 -12 23 C-12 12.5 -12 12.5 -9 8 C-8.01 8 -7.02 8 -6 8 C-5.34 6.68 -4.68 5.36 -4 4 C-3.01 4 -2.02 4 -1 4 C-0.67 2.68 -0.34 1.36 0 0 Z " fill="#0F0F0F" transform="translate(347,269)"/>
<path d="M0 0 C0.33 0 0.66 0 1 0 C1.14492719 3.93711437 1.23394537 7.87354625 1.3125 11.8125 C1.35439453 12.93205078 1.39628906 14.05160156 1.43945312 15.20507812 C1.45556641 16.27822266 1.47167969 17.35136719 1.48828125 18.45703125 C1.51446533 19.44678955 1.54064941 20.43654785 1.56762695 21.45629883 C1 24 1 24 -1.53051758 25.84643555 C-2.75291138 26.41744995 -2.75291138 26.41744995 -4 27 C-4.08733513 23.91684615 -4.14050127 20.83401173 -4.1875 17.75 C-4.21263672 16.87730469 -4.23777344 16.00460938 -4.26367188 15.10546875 C-4.35015742 7.55239789 -4.35015742 7.55239789 -1 4 C-1 3.01 -1 2.02 -1 1 C-0.67 0.67 -0.34 0.34 0 0 Z " fill="#121213" transform="translate(368,182)"/>
<path d="M0 0 C0.66 0.33 1.32 0.66 2 1 C1.67 1.33 1.34 1.66 1 2 C1.22258136 5.08434172 1.5862732 8.14312594 1.94140625 11.21484375 C1.96074219 12.13394531 1.98007812 13.05304688 2 14 C1.34 14.66 0.68 15.32 0 16 C-0.309375 16.78375 -0.61875 17.5675 -0.9375 18.375 C-2 21 -2 21 -3.6875 22.75 C-5.55699692 25.95485186 -4.68432473 28.31644121 -4.12890625 31.8828125 C-4 34 -4 34 -5.4375 36.375 C-5.953125 36.91125 -6.46875 37.4475 -7 38 C-7 38.99 -7 39.98 -7 41 C-8.98 41 -10.96 41 -13 41 C-10 38 -10 38 -7 35 C-7.03234898 33.08258745 -7.10105824 31.1657362 -7.1875 29.25 C-7.24291235 25.01851133 -7.26311801 23.42756677 -5 19.75 C-4.34 19.1725 -3.68 18.595 -3 18 C-3.99 17.34 -4.98 16.68 -6 16 C-6 15.34 -6 14.68 -6 14 C-4.68 13.34 -3.36 12.68 -2 12 C-2.02320313 11.30132812 -2.04640625 10.60265625 -2.0703125 9.8828125 C-2.08835937 8.97273437 -2.10640625 8.06265625 -2.125 7.125 C-2.14820313 6.22007812 -2.17140625 5.31515625 -2.1953125 4.3828125 C-2 2 -2 2 0 0 Z " fill="#070803" transform="translate(268,158)"/>
<path d="M0 0 C0.8971875 0.5259375 0.8971875 0.5259375 1.8125 1.0625 C0.44266497 4.22365776 -0.1765638 5.0552092 -3.1875 7.0625 C-3.496875 7.701875 -3.80625 8.34125 -4.125 9 C-5.44222062 11.55695768 -6.68307053 12.66296588 -9.1875 14.0625 C-11.4375 13.75 -11.4375 13.75 -13.1875 13.0625 C-11.86269115 7.63078371 -9.25318173 3.81782435 -5.1875 0.0625 C-2.1875 -0.9375 -2.1875 -0.9375 0 0 Z " fill="#101010" transform="translate(100.1875,77.9375)"/>
<path d="M0 0 C1.32 0.33 2.64 0.66 4 1 C4 1.66 4 2.32 4 3 C4.66 3.33 5.32 3.66 6 4 C5.98839844 4.66386719 5.97679687 5.32773438 5.96484375 6.01171875 C5.86226214 11.45802559 5.86226214 11.45802559 6.6875 16.8125 C7.14029609 19.98207264 5.85437236 21.50372951 4 24 C3.67 24 3.34 24 3 24 C1.56162016 18.09286726 0.17704449 12.10122535 0 6 C0.33 5.67 0.66 5.34 1 5 C0.67 4.01 0.34 3.02 0 2 C0 1.34 0 0.68 0 0 Z " fill="#121213" transform="translate(50,207)"/>
<path d="M0 0 C1.32 0.33 2.64 0.66 4 1 C3.01 1.495 3.01 1.495 2 2 C2 3.98 2 5.96 2 8 C1.01 8.33 0.02 8.66 -1 9 C-1.70626239 10.98636298 -2.36893571 12.98848259 -3 15 C-4.375 17.375 -4.375 17.375 -6 19 C-7.32 19 -8.64 19 -10 19 C-10.33 19.66 -10.66 20.32 -11 21 C-10.41576962 17.37263553 -9.45314341 14.53220268 -7.6875 11.3125 C-7.07455078 10.16201172 -7.07455078 10.16201172 -6.44921875 8.98828125 C-4.81843608 6.75090017 -3.45465371 6.16863971 -1 5 C-0.18828772 2.44480079 -0.18828772 2.44480079 0 0 Z " fill="#111212" transform="translate(81,96)"/>
<path d="M0 0 C0.94875 0.04125 1.8975 0.0825 2.875 0.125 C2.875 0.785 2.875 1.445 2.875 2.125 C4.525 1.465 6.175 0.805 7.875 0.125 C10.185 3.095 12.495 6.065 14.875 9.125 C14.215 9.785 13.555 10.445 12.875 11.125 C12.441875 10.34125 12.00875 9.5575 11.5625 8.75 C9.98279753 5.90801625 9.98279753 5.90801625 6.875 4.125 C4.35915109 3.88349227 4.35915109 3.88349227 1.6875 4 C0.099375 4.04125 -1.48875 4.0825 -3.125 4.125 C-3.125 8.745 -3.125 13.365 -3.125 18.125 C-0.815 17.465 1.495 16.805 3.875 16.125 C3.545 17.115 3.215 18.105 2.875 19.125 C0.235 19.125 -2.405 19.125 -5.125 19.125 C-5.17880578 16.33307795 -5.21857669 13.5421859 -5.25 10.75 C-5.26675781 9.9559375 -5.28351563 9.161875 -5.30078125 8.34375 C-5.31835473 6.27007985 -5.22835168 4.19616759 -5.125 2.125 C-3.125 0.125 -3.125 0.125 0 0 Z " fill="#040402" transform="translate(299.125,320.875)"/>
<path d="M0 0 C3.3048381 2.2032254 3.56658911 2.82567601 4.6875 6.4375 C4.93886719 7.21996094 5.19023437 8.00242188 5.44921875 8.80859375 C6 11 6 11 6 14 C6.66 14.33 7.32 14.66 8 15 C8 16.32 8 17.64 8 19 C8.226875 19.680625 8.45375 20.36125 8.6875 21.0625 C8.8421875 22.0215625 8.8421875 22.0215625 9 23 C7.5625 24.75 7.5625 24.75 6 26 C4.68 24.68 3.36 23.36 2 22 C2.391875 21.443125 2.78375 20.88625 3.1875 20.3125 C3.455625 19.549375 3.72375 18.78625 4 18 C3.02616054 16.31791365 2.02304948 14.65261839 1 13 C0.95745644 11.00045254 0.95919217 8.99958364 1 7 C0.07585059 3.72435637 0.07585059 3.72435637 -1 1 C-0.67 0.67 -0.34 0.34 0 0 Z " fill="#111110" transform="translate(140,180)"/>
<path d="M0 0 C2 1 2 1 3.125 3.375 C4.61089743 7.8326923 3.53045391 10.69559838 2 15 C1.34 15 0.68 15 0 15 C0.16048828 15.85271484 0.16048828 15.85271484 0.32421875 16.72265625 C1.22674515 22.53570263 0.76354854 25.80452875 -2 31 C-2.33 31 -2.66 31 -3 31 C-2.56367091 24.11059329 -1.91610155 17.64248536 0 11 C-0.66 10.67 -1.32 10.34 -2 10 C-2.85056945 6.44307323 -3.16909807 4.50729422 -2 1 C-1.34 0.67 -0.68 0.34 0 0 Z " fill="#111212" transform="translate(263,90)"/>
<path d="M0 0 C2.19626317 3.4712474 2.06917141 5.64308376 1.3125 9.625 C1.05919922 11.06746094 1.05919922 11.06746094 0.80078125 12.5390625 C0 15 0 15 -3 17 C-4.19232613 19.05003955 -4.19232613 19.05003955 -5 21 C-6.32 20.67 -7.64 20.34 -9 20 C-8.45658377 16.08740311 -7.33420118 14.11226824 -5 11 C-4.7834375 9.824375 -4.7834375 9.824375 -4.5625 8.625 C-3.81876411 5.1542325 -2.05669945 2.85284117 0 0 Z " fill="#121213" transform="translate(65,126)"/>
<path d="M0 0 C3.75 0.375 3.75 0.375 6.625 2.75 C10.59200314 7.65041564 10.02267188 12.23927336 9.5 18.25 C8.75 20.375 8.75 20.375 6.6875 21.6875 C6.048125 21.914375 5.40875 22.14125 4.75 22.375 C4.09 21.715 3.43 21.055 2.75 20.375 C3.41 19.92125 4.07 19.4675 4.75 19 C7.43285922 15.47874727 7.14992964 12.93025799 7.0859375 8.6171875 C6.94734479 6.17599274 6.94734479 6.17599274 4.75 4.375 C2.09462628 3.80979997 -0.54144713 3.63711802 -3.25 3.375 C-3.25 8.655 -3.25 13.935 -3.25 19.375 C-3.91 19.045 -4.57 18.715 -5.25 18.375 C-5.10980308 15.56211295 -4.96312045 12.74983115 -4.8125 9.9375 C-4.77318359 9.13505859 -4.73386719 8.33261719 -4.69335938 7.50585938 C-4.3089172 0.49718275 -4.3089172 0.49718275 0 0 Z " fill="#030401" transform="translate(239.25,320.625)"/>
<path d="M0 0 C8.58 0 17.16 0 26 0 C26.33 1.65 26.66 3.3 27 5 C26.360625 5.28875 25.72125 5.5775 25.0625 5.875 C22.84793921 6.82823451 22.84793921 6.82823451 22 9 C22 6.66666667 22 4.33333333 22 2 C20.90300781 2.08378906 19.80601562 2.16757812 18.67578125 2.25390625 C17.22137904 2.35712189 15.76695049 2.45996694 14.3125 2.5625 C13.59126953 2.61857422 12.87003906 2.67464844 12.12695312 2.73242188 C8.22685936 2.99955159 4.78888972 3.00887596 1 2 C1.66 3.65 2.32 5.3 3 7 C1.68 6.34 0.36 5.68 -1 5 C-0.67 3.35 -0.34 1.7 0 0 Z " fill="#060903" transform="translate(129,277)"/>
<path d="M0 0 C2.5593643 1.91714464 3.18175897 3.55706101 4.1015625 6.57421875 C2.8640625 5.58421875 2.8640625 5.58421875 1.6015625 4.57421875 C-2.82401765 1.60635339 -6.86195933 2.17453607 -12.03515625 2.85546875 C-14.02426872 3.40653653 -14.02426872 3.40653653 -14.91015625 5.21875 C-16.90852113 11.62968937 -17.56989014 17.87865024 -17.8984375 24.57421875 C-18.2284375 23.91421875 -18.5584375 23.25421875 -18.8984375 22.57421875 C-19.5584375 22.24421875 -20.2184375 21.91421875 -20.8984375 21.57421875 C-20.35503584 13.01564262 -18.81472325 5.76120103 -12.2734375 -0.23828125 C-7.75065891 -3.31581104 -4.75262317 -2.09674552 0 0 Z " fill="#040601" transform="translate(133.8984375,322.42578125)"/>
<path d="M0 0 C3.62493334 -0.05787784 7.24974857 -0.0935542 10.875 -0.125 C11.90753906 -0.14175781 12.94007813 -0.15851563 14.00390625 -0.17578125 C14.99003906 -0.18222656 15.97617188 -0.18867188 16.9921875 -0.1953125 C18.35899658 -0.21102295 18.35899658 -0.21102295 19.75341797 -0.22705078 C22 0 22 0 24 2 C21.54724859 3.2263757 19.9494219 3.11415314 17.2109375 3.09765625 C16.26992187 3.09443359 15.32890625 3.09121094 14.359375 3.08789062 C13.37453125 3.07951172 12.3896875 3.07113281 11.375 3.0625 C10.38242188 3.05798828 9.38984375 3.05347656 8.3671875 3.04882812 C5.9113984 3.03702145 3.45572896 3.020554 1 3 C1.65427979 3.44529053 2.30855957 3.89058105 2.98266602 4.34936523 C5 6 5 6 5.27734375 8.41015625 C5.16519531 9.28542969 5.05304688 10.16070312 4.9375 11.0625 C4.84339844 11.94035156 4.74929687 12.81820313 4.65234375 13.72265625 C4 16 4 16 1 18 C1.33 14.37 1.66 10.74 2 7 C1.01 6.34 0.02 5.68 -1 5 C-0.67 3.35 -0.34 1.7 0 0 Z " fill="#040402" transform="translate(166,316)"/>
<path d="M0 0 C0.66 0.33 1.32 0.66 2 1 C1.67 1.66 1.34 2.32 1 3 C0.7675741 6.32405933 0.60595829 9.64124619 0.48242188 12.97070312 C0.28009749 17.09735711 -0.45215914 20.20812786 -2 24 C-1.01644692 27.30061832 -1.01644692 27.30061832 1 30 C2.32303717 30.3721042 3.65737935 30.70630173 5 31 C8 35.17857143 8 35.17857143 8 38 C7.01 37.67 6.02 37.34 5 37 C5 36.34 5 35.68 5 35 C4.4225 34.7525 3.845 34.505 3.25 34.25 C0.55197615 32.75109786 -1.08748093 31.44011054 -3 29 C-3.8125 25.3125 -3.8125 25.3125 -4 22 C-3.67 21.67 -3.34 21.34 -3 21 C-2.76211142 17.6922159 -2.60459703 14.39175355 -2.48242188 11.078125 C-2.28335491 6.99161825 -1.79525812 3.69227175 0 0 Z " fill="#040502" transform="translate(170,196)"/>
<path d="M0 0 C0.66 0.99 1.32 1.98 2 3 C0.35 4.32 -1.3 5.64 -3 7 C6.9 7.33 16.8 7.66 27 8 C25 10 25 10 22.11083984 10.22705078 C20.90637207 10.21657715 19.7019043 10.20610352 18.4609375 10.1953125 C16.50800781 10.18564453 16.50800781 10.18564453 14.515625 10.17578125 C13.13541405 10.15906929 11.75520571 10.14213939 10.375 10.125 C8.98698548 10.11497006 7.59896411 10.10584423 6.2109375 10.09765625 C2.80711974 10.07401863 -0.59635506 10.04106867 -4 10 C-4.65234375 7.67578125 -4.65234375 7.67578125 -5 5 C-2.5625 2.1875 -2.5625 2.1875 0 0 Z " fill="#040502" transform="translate(196,297)"/>
<path d="M0 0 C0.99 0 1.98 0 3 0 C3.33 1.32 3.66 2.64 4 4 C4.66 4 5.32 4 6 4 C7.62109375 5.64453125 7.62109375 5.64453125 9.4375 7.8125 C11.94435974 10.78895966 11.94435974 10.78895966 14.62109375 13.609375 C17.54312253 16.55623688 19.24830621 19.94085355 20 24 C20.99 24 21.98 24 23 24 C23.33 25.32 23.66 26.64 24 28 C24.66 28 25.32 28 26 28 C25.34 29.32 24.68 30.64 24 32 C22.68325862 30.06537998 21.37174202 28.12720303 20.0625 26.1875 C19.33160156 25.10855469 18.60070312 24.02960938 17.84765625 22.91796875 C16 20 16 20 15 17 C14.34 17 13.68 17 13 17 C11.62751319 15.44684614 10.32521299 13.83114316 9.0625 12.1875 C6.31800332 8.59853733 6.31800332 8.59853733 3.24609375 5.30078125 C2 4 2 4 2 2 C1.34 2 0.68 2 0 2 C0 1.34 0 0.68 0 0 Z " fill="#030501" transform="translate(317,83)"/>
<path d="M0 0 C0.74958984 0.00451172 1.49917969 0.00902344 2.27148438 0.01367188 C4.11852383 0.02543646 5.96552213 0.04337135 7.8125 0.0625 C7.8125 0.7225 7.8125 1.3825 7.8125 2.0625 C8.4725 2.0625 9.1325 2.0625 9.8125 2.0625 C9.8125 2.7225 9.8125 3.3825 9.8125 4.0625 C10.4725 4.3925 11.1325 4.7225 11.8125 5.0625 C11.1525 5.0625 10.4925 5.0625 9.8125 5.0625 C9.8125 7.3725 9.8125 9.6825 9.8125 12.0625 C7.8325 13.0525 7.8325 13.0525 5.8125 14.0625 C5.8125 14.7225 5.8125 15.3825 5.8125 16.0625 C6.8025 16.0625 7.7925 16.0625 8.8125 16.0625 C8.8125 16.7225 8.8125 17.3825 8.8125 18.0625 C7.1625 17.7325 5.5125 17.4025 3.8125 17.0625 C3.4825 15.7425 3.1525 14.4225 2.8125 13.0625 C5.8125 11.0625 5.8125 11.0625 8.8125 11.0625 C8.04219878 7.57440809 8.04219878 7.57440809 6.8125 4.0625 C3.19382441 2.8562748 -0.11256251 2.95433082 -3.875 3 C-4.57689453 3.00451172 -5.27878906 3.00902344 -6.00195312 3.01367188 C-7.73050538 3.02543073 -9.45901365 3.04336546 -11.1875 3.0625 C-11.1875 2.4025 -11.1875 1.7425 -11.1875 1.0625 C-7.42449626 -0.19183458 -3.91539091 -0.04445422 0 0 Z " fill="#020301" transform="translate(179.1875,352.9375)"/>
<path d="M0 0 C0.99 0 1.98 0 3 0 C3 0.66 3 1.32 3 2 C3.66 2.33 4.32 2.66 5 3 C6.76794488 6.65419091 7.53396413 10.25999156 8.1875 14.25 C8.45626953 15.83554687 8.45626953 15.83554687 8.73046875 17.453125 C8.81941406 18.29359375 8.90835938 19.1340625 9 20 C7.37047268 21.62952732 5.42836277 21.43486979 3.1875 21.6875 C2.31480469 21.79449219 1.44210938 21.90148437 0.54296875 22.01171875 C-2.22586307 21.99895916 -3.66019519 21.42351761 -6 20 C-5.34 19.34 -4.68 18.68 -4 18 C-4 18.66 -4 19.32 -4 20 C-0.37 20 3.26 20 7 20 C5.35 15.38 3.7 10.76 2 6 C1.01 6.33 0.02 6.66 -1 7 C-0.67 4.69 -0.34 2.38 0 0 Z " fill="#050502" transform="translate(184,263)"/>
<path d="M0 0 C2.475 0.99 2.475 0.99 5 2 C5.07347656 3.03060547 5.07347656 3.03060547 5.1484375 4.08203125 C5.22320312 4.98308594 5.29796875 5.88414062 5.375 6.8125 C5.44460938 7.70582031 5.51421875 8.59914062 5.5859375 9.51953125 C5.86645036 12.24398499 5.86645036 12.24398499 8 15 C6.02 15.99 6.02 15.99 4 17 C3.32645501 15.56570999 2.66140299 14.12742943 2 12.6875 C1.62875 11.88699219 1.2575 11.08648437 0.875 10.26171875 C0 8 0 8 0 5 C-0.66 5 -1.32 5 -2 5 C-1.34 3.35 -0.68 1.7 0 0 Z " fill="#111110" transform="translate(354,131)"/>
<path d="M0 0 C9.38622754 -0.34621331 9.38622754 -0.34621331 14 1.0625 C18.75165131 2.45488963 23.17539166 1.68477214 28 1 C28.69584576 3.95659785 29.38198507 6.91487233 30.0625 9.875 C30.26166016 10.71675781 30.46082031 11.55851562 30.66601562 12.42578125 C30.84970703 13.23144531 31.03339844 14.03710938 31.22265625 14.8671875 C31.39547119 15.61081543 31.56828613 16.35444336 31.74633789 17.12060547 C32 19 32 19 31 21 C29.5 19.9375 29.5 19.9375 28 18 C27.95425716 15.66711508 27.96175377 13.33301986 28 11 C27.47177282 8.27796444 26.75046415 5.67352854 26 3 C25.030625 3.37125 24.06125 3.7425 23.0625 4.125 C18.47344019 5.466995 14.4586676 4.48303321 10 3 C9.67 2.67 9.34 2.34 9 2 C7.48530552 1.76807135 5.96245438 1.58784762 4.4375 1.4375 C3.61121094 1.35371094 2.78492187 1.26992187 1.93359375 1.18359375 C1.29550781 1.12300781 0.65742187 1.06242188 0 1 C0 0.67 0 0.34 0 0 Z " fill="#050701" transform="translate(119,248)"/>
<path d="M0 0 C0.72445312 0.48210937 1.44890625 0.96421875 2.1953125 1.4609375 C3.16210938 2.09257812 4.12890625 2.72421875 5.125 3.375 C6.07632813 4.00148438 7.02765625 4.62796875 8.0078125 5.2734375 C12.95461978 8.12786155 16.99369669 9.25411674 22.6875 9 C27.6692607 8.77950713 27.6692607 8.77950713 31 11 C31 10.34 31 9.68 31 9 C33.475 9.495 33.475 9.495 36 10 C29.99225644 13.71414688 21.8566062 12.57954465 15.140625 11.5703125 C8.9113073 10.00331022 4.20488434 6.8743771 0 2 C0 1.34 0 0.68 0 0 Z " fill="#050602" transform="translate(101,296)"/>
<path d="M0 0 C2 2 2 2 2.375 4.8125 C3.1072572 8.54701171 4.54337594 10.15952843 7 13 C7.33 13.99 7.66 14.98 8 16 C6.68 16.99 5.36 17.98 4 19 C4 18.34 4 17.68 4 17 C3.34 17 2.68 17 2 17 C1.7525 15.80375 1.505 14.6075 1.25 13.375 C0.25336253 9.301786 -1.5576687 6.41926382 -4 3 C-4 2.34 -4 1.68 -4 1 C-2.125 0.375 -2.125 0.375 0 0 Z " fill="#111210" transform="translate(65,254)"/>
<path d="M0 0 C1.77111844 0.47811177 3.54188483 0.9575278 5.3125 1.4375 C6.29863281 1.70433594 7.28476562 1.97117188 8.30078125 2.24609375 C10.21517526 2.78079425 12.11433615 3.37144538 14 4 C15.1875 6.5625 15.1875 6.5625 16 9 C14.3125 9.6875 14.3125 9.6875 12 10 C9.6875 8.75 9.6875 8.75 7 7 C4.69225455 5.92785992 2.35393691 4.96926814 0 4 C0 2.68 0 1.36 0 0 Z " fill="#121112" transform="translate(278,51)"/>
<path d="M0 0 C0.66 0 1.32 0 2 0 C2 0.66 2 1.32 2 2 C2.99 2.33 3.98 2.66 5 3 C5.9140625 5.3984375 5.9140625 5.3984375 6.625 8.375 C6.86476562 9.35210937 7.10453125 10.32921875 7.3515625 11.3359375 C7.56554687 12.21507812 7.77953125 13.09421875 8 14 C8.33 14.99 8.66 15.98 9 17 C8.67 17.66 8.34 18.32 8 19 C4.04 18.67 0.08 18.34 -4 18 C-3.67 17.34 -3.34 16.68 -3 16 C-0.03 16.33 2.94 16.66 6 17 C4.68 13.04 3.36 9.08 2 5 C0.02 5.99 0.02 5.99 -2 7 C-1.125 2.25 -1.125 2.25 0 0 Z " fill="#050602" transform="translate(176,330)"/>
<path d="M0 0 C0.33 0 0.66 0 1 0 C0.84627701 8.44078948 -0.31614637 16.21238471 -2.375 24.375 C-2.58406982 25.20612305 -2.79313965 26.03724609 -3.00854492 26.89355469 C-4.36534147 32.07226229 -6.04151996 37.01790166 -8 42 C-10 39 -10 39 -9.64453125 37.0546875 C-9.36996094 36.33539063 -9.09539062 35.61609375 -8.8125 34.875 C-8.52117187 34.07964844 -8.22984375 33.28429687 -7.9296875 32.46484375 C-7.62289063 31.65144531 -7.31609375 30.83804688 -7 30 C-3.20642419 19.65301216 -3.20642419 19.65301216 -2 8.8125 C-2 5.2092451 -1.58824619 3.17649238 0 0 Z " fill="#040501" transform="translate(368,211)"/>
<path d="M0 0 C1.8125 0.5 1.8125 0.5 4 2 C5.27915426 4.57567261 6.10953212 7.2706369 7 10 C7.391875 10.886875 7.78375 11.77375 8.1875 12.6875 C9 15 9 15 9 20 C4.05 20 -0.9 20 -6 20 C-5.34 19.34 -4.68 18.68 -4 18 C-0.29100027 18.03341441 3.30955121 18.57087805 7 19 C5.35 14.38 3.7 9.76 2 5 C1.34 5 0.68 5 0 5 C-0.5625 3.0625 -0.5625 3.0625 -1 1 C-0.67 0.67 -0.34 0.34 0 0 Z " fill="#050602" transform="translate(283,264)"/>
<path d="M0 0 C2.375 -0.125 2.375 -0.125 5 0 C5.66 0.66 6.32 1.32 7 2 C6.68031589 5.94277072 5.28521123 8.80070428 3 12 C2.34 12 1.68 12 1 12 C1 12.66 1 13.32 1 14 C-2.87036007 17.08284263 -7.00786149 19.53198701 -12 20 C-9.9130365 16.86955476 -9.18533361 16.54440417 -6 15 C-5.505 14.505 -5.01 14.01 -4.5 13.5 C-3 12 -3 12 -1 11.125 C1.73344064 9.58743964 2.64178066 7.78434966 4 5 C4 4.01 4 3.02 4 2 C2.68 2 1.36 2 0 2 C0 1.34 0 0.68 0 0 Z " fill="#050602" transform="translate(144,351)"/>
<path d="M0 0 C1.32 0.66 2.64 1.32 4 2 C4 5.96 4 9.92 4 14 C3.34 14 2.68 14 2 14 C1.34 15.65 0.68 17.3 0 19 C-3.66881155 18.29445932 -6.70450534 16.72264494 -10 15 C-9.67 14.34 -9.34 13.68 -9 13 C-8.34 13.33 -7.68 13.66 -7 14 C-2.85496339 14.24787017 -2.85496339 14.24787017 1 13 C1.02696365 11.20841511 1.04637917 9.41671527 1.0625 7.625 C1.07410156 6.62726563 1.08570313 5.62953125 1.09765625 4.6015625 C1.18006602 2.01567547 1.18006602 2.01567547 0 0 Z " fill="#080A05" transform="translate(132,284)"/>
<path d="M0 0 C1.32 1.32 2.64 2.64 4 4 C1.33821779 5.3308911 -0.68739396 5.11268993 -3.6640625 5.09765625 C-4.78554687 5.09443359 -5.90703125 5.09121094 -7.0625 5.08789062 C-8.238125 5.07951172 -9.41375 5.07113281 -10.625 5.0625 C-11.80835938 5.05798828 -12.99171875 5.05347656 -14.2109375 5.04882812 C-17.14067507 5.03701467 -20.07031272 5.02054258 -23 5 C-22.67 4.34 -22.34 3.68 -22 3 C-15.07 3 -8.14 3 -1 3 C-0.67 2.01 -0.34 1.02 0 0 Z " fill="#060603" transform="translate(251,302)"/>
<path d="M0 0 C0.33 0.66 0.66 1.32 1 2 C3.01669827 3.13350534 3.01669827 3.13350534 5 4 C5 4.66 5 5.32 5 6 C5.66 6 6.32 6 7 6 C7 6.99 7 7.98 7 9 C7.66 9.66 8.32 10.32 9 11 C8.01 11.99 7.02 12.98 6 14 C1 8.25 1 8.25 1 6 C0.34 5.67 -0.32 5.34 -1 5 C-1.625 2.9375 -1.625 2.9375 -2 1 C-1.34 0.67 -0.68 0.34 0 0 Z " fill="#121213" transform="translate(79,282)"/>
<path d="M0 0 C1.32 0.33 2.64 0.66 4 1 C3.34 1 2.68 1 2 1 C2.56076801 3.49004504 2.56076801 3.49004504 4 6 C7.02982306 7.37189827 7.02982306 7.37189827 10 8 C6.66603027 9.0958882 4.4056708 8.86492252 1 8.125 C-4.97833127 6.93094733 -10.92294507 6.40301586 -17 6 C-17 5.67 -17 5.34 -17 5 C-9.375 2.875 -9.375 2.875 -6 4 C-4.00326516 4.35236497 -2.00349261 4.68834559 0 5 C0 3.35 0 1.7 0 0 Z " fill="#060704" transform="translate(237,35)"/>
<path d="M0 0 C3.32975971 3.32975971 3.17845479 8.3481205 3.85546875 12.87890625 C4.44037523 17.39388409 4.44037523 17.39388409 7 21 C6.67 21.99 6.34 22.98 6 24 C6.66 24.33 7.32 24.66 8 25 C8 25.99 8 26.98 8 28 C7.01 28 6.02 28 5 28 C3.54815522 23.46298506 2.76490804 19.81938524 3 15 C2.34 15 1.68 15 1 15 C0.67 10.05 0.34 5.1 0 0 Z " fill="#040503" transform="translate(49,214)"/>
<path d="M0 0 C0.33 0 0.66 0 1 0 C1.12375 1.670625 1.12375 1.670625 1.25 3.375 C1.57873787 7.05753944 1.57873787 7.05753944 4.0625 8.4375 C4.701875 8.623125 5.34125 8.80875 6 9 C6 10.65 6 12.3 6 14 C0.06 14 -5.88 14 -12 14 C-8.63665155 11.7577677 -6.90755033 11.60675646 -2.9375 11.3125 C-1.87402344 11.22613281 -0.81054688 11.13976562 0.28515625 11.05078125 C3 11 3 11 5 12 C5 11.34 5 10.68 5 10 C4.360625 9.855625 3.72125 9.71125 3.0625 9.5625 C1 9 1 9 0 8 C-0.14115161 5.32941149 -0.04247107 2.67567762 0 0 Z " fill="#070A04" transform="translate(167,356)"/>
<path d="M0 0 C0.99 0.33 1.98 0.66 3 1 C3 2.32 3 3.64 3 5 C0.54724859 6.2263757 -1.0505781 6.11415314 -3.7890625 6.09765625 C-4.73007812 6.09443359 -5.67109375 6.09121094 -6.640625 6.08789062 C-7.62546875 6.07951172 -8.6103125 6.07113281 -9.625 6.0625 C-10.61757813 6.05798828 -11.61015625 6.05347656 -12.6328125 6.04882812 C-15.0886016 6.03702145 -17.54427104 6.020554 -20 6 C-20.33 5.34 -20.66 4.68 -21 4 C-19.83082031 4.01160156 -18.66164063 4.02320313 -17.45703125 4.03515625 C-15.90885577 4.04453913 -14.36067855 4.0536388 -12.8125 4.0625 C-12.04357422 4.07087891 -11.27464844 4.07925781 -10.48242188 4.08789062 C-6.51473211 4.10491934 -2.87428766 3.98604115 1 3 C0.67 2.01 0.34 1.02 0 0 Z " fill="#030401" transform="translate(278,301)"/>
<path d="M0 0 C0.66 0.33 1.32 0.66 2 1 C1.65066406 1.54269531 1.30132812 2.08539063 0.94140625 2.64453125 C0.48636719 3.35996094 0.03132812 4.07539063 -0.4375 4.8125 C-0.88996094 5.52019531 -1.34242188 6.22789062 -1.80859375 6.95703125 C-3.95877365 10.64406105 -4.24728448 13.99963664 -4.5625 18.1875 C-4.64628906 19.27417969 -4.73007813 20.36085937 -4.81640625 21.48046875 C-4.87699219 22.31191406 -4.93757812 23.14335937 -5 24 C-5.99 24.33 -6.98 24.66 -8 25 C-7.74528401 22.06027779 -7.47200125 19.12435936 -7.1875 16.1875 C-7.08211914 14.93743164 -7.08211914 14.93743164 -6.97460938 13.66210938 C-6.89404297 12.85966797 -6.81347656 12.05722656 -6.73046875 11.23046875 C-6.62835083 10.12288208 -6.62835083 10.12288208 -6.52416992 8.99291992 C-5.8813028 6.54870738 -4.87479642 5.64943351 -3 4 C-1.98199424 2.68036291 -0.97751635 1.34990354 0 0 Z " fill="#050602" transform="translate(251,218)"/>
<path d="M0 0 C3.69230769 0.69230769 3.69230769 0.69230769 5 2 C5.08651611 3.41570123 5.10704904 4.835595 5.09765625 6.25390625 C5.09443359 7.10791016 5.09121094 7.96191406 5.08789062 8.84179688 C5.07951172 9.73962891 5.07113281 10.63746094 5.0625 11.5625 C5.05798828 12.46419922 5.05347656 13.36589844 5.04882812 14.29492188 C5.03700225 16.53001314 5.0205222 18.76497437 5 21 C2.64453125 21.1875 2.64453125 21.1875 0 21 C-2.3125 18 -2.3125 18 -4 15 C-3.34 14.67 -2.68 14.34 -2 14 C-1.34 15.65 -0.68 17.3 0 19 C0.99 18.67 1.98 18.34 3 18 C3 13.05 3 8.1 3 3 C1.68 2.34 0.36 1.68 -1 1 C-0.67 0.67 -0.34 0.34 0 0 Z " fill="#030400" transform="translate(306,333)"/>
<path d="M0 0 C0.99 0.33 1.98 0.66 3 1 C3.66 0.67 4.32 0.34 5 0 C7.04498425 0.08780403 9.08744948 0.24241538 11.125 0.4375 C12.22070312 0.53933594 13.31640625 0.64117187 14.4453125 0.74609375 C15.28835938 0.82988281 16.13140625 0.91367187 17 1 C17 1.33 17 1.66 17 2 C11.555 2.495 11.555 2.495 6 3 C5.31506627 5.85778033 5.31506627 5.85778033 5 9 C5.99 10.485 5.99 10.485 7 12 C5 11 3 10 1 9 C1.33 7.02 1.66 5.04 2 3 C0.68 2.67 -0.64 2.34 -2 2 C-1.34 1.34 -0.68 0.68 0 0 Z " fill="#090907" transform="translate(271,289)"/>
<path d="M0 0 C0.66 0.66 1.32 1.32 2 2 C0.35 2 -1.3 2 -3 2 C-2.91621094 2.66386719 -2.83242188 3.32773437 -2.74609375 4.01171875 C-1.73462214 12.78207381 -1.73462214 12.78207381 -3 17 C-1.35 17.33 0.3 17.66 2 18 C1.01 18.33 0.02 18.66 -1 19 C-2.32 18.34 -3.64 17.68 -5 17 C-5 12.05 -5 7.1 -5 2 C-3.35 1.34 -1.7 0.68 0 0 Z " fill="#010100" transform="translate(299,345)"/>
<path d="M0 0 C3.47282119 3.47282119 4.53591922 8.38052058 6.1875 12.9375 C6.56841797 13.95263672 6.94933594 14.96777344 7.34179688 16.01367188 C7.69693359 16.98755859 8.05207031 17.96144531 8.41796875 18.96484375 C8.74563232 19.8580835 9.0732959 20.75132324 9.41088867 21.67163086 C10 24 10 24 9 27 C5.88303339 22.66335081 5.44033187 19.19591612 5 14 C4.34 14 3.68 14 3 14 C3 12.35 3 10.7 3 9 C2.34 8.67 1.68 8.34 1 8 C1 6.35 1 4.7 1 3 C0.34 2.67 -0.32 2.34 -1 2 C-0.67 1.34 -0.34 0.68 0 0 Z " fill="#040602" transform="translate(191,321)"/>
<path d="M0 0 C0.33 0 0.66 0 1 0 C1.22537111 3.12401779 1.42738648 6.24911333 1.625 9.375 C1.68945312 10.26445312 1.75390625 11.15390625 1.8203125 12.0703125 C1.871875 12.92109375 1.9234375 13.771875 1.9765625 14.6484375 C2.02893066 15.43395996 2.08129883 16.21948242 2.13525391 17.02880859 C2 19 2 19 0 21 C-2.27734375 21.01171875 -2.27734375 21.01171875 -4.9375 20.6875 C-5.81277344 20.58824219 -6.68804687 20.48898437 -7.58984375 20.38671875 C-10 20 -10 20 -13 19 C-10.51889985 17.43782583 -9.39141793 16.94271933 -6.4375 17.375 C-5.2309375 17.684375 -5.2309375 17.684375 -4 18 C-3.01 18 -2.02 18 -1 18 C0.59412284 14.81175432 0.10174735 11.37103338 0.0625 7.875 C0.05798828 7.12089844 0.05347656 6.36679687 0.04882812 5.58984375 C0.03703499 3.72652873 0.01909942 1.86325445 0 0 Z " fill="#010300" transform="translate(150,286)"/>
<path d="M0 0 C0.2475 0.61875 0.495 1.2375 0.75 1.875 C1.81105913 4.16137472 1.81105913 4.16137472 4.0625 4.875 C4.701875 5.24625 5.34125 5.6175 6 6 C6.75 9.125 6.75 9.125 7 12 C6.01 12 5.02 12 4 12 C3.01 12.495 3.01 12.495 2 13 C2 12.34 2 11.68 2 11 C1.34 10.67 0.68 10.34 0 10 C-0.89093449 6.35526801 -1.23666047 3.57257469 0 0 Z " fill="#141512" transform="translate(360,157)"/>
<path d="M0 0 C2.03125 0.20703125 2.03125 0.20703125 4.5 0.8125 C9.65312749 1.97683639 14.73959326 2.57469052 20 3 C20 3.66 20 4.32 20 5 C12.12309743 5.41136629 5.49701701 4.436168 -2 2 C-1.34 1.34 -0.68 0.68 0 0 Z " fill="#030401" transform="translate(124,224)"/>
<path d="M0 0 C2.32606389 6.97819166 2.13122536 14.22568477 2.0625 21.5 C2.05798828 22.4178125 2.05347656 23.335625 2.04882812 24.28125 C2.03716326 26.52090391 2.02079614 28.76041545 2 31 C1.67 31 1.34 31 1 31 C0.92652344 29.28103516 0.92652344 29.28103516 0.8515625 27.52734375 C0.77647199 25.99737465 0.70092694 24.46742782 0.625 22.9375 C0.5940625 22.18533203 0.563125 21.43316406 0.53125 20.65820312 C0.28025831 15.82661313 -0.60847324 11.65959377 -2 7 C-1.48979592 1.48979592 -1.48979592 1.48979592 0 0 Z " fill="#070802" transform="translate(214,146)"/>
<path d="M0 0 C0 0.66 0 1.32 0 2 C-2.91421053 4.15096492 -5.78259368 5.89795214 -9.0625 7.4375 C-12.34163549 9.18172101 -14.42537832 11.35386105 -17 14 C-17.66 14 -18.32 14 -19 14 C-19 13.34 -19 12.68 -19 12 C-17.35163276 10.45428908 -15.62922992 8.98693469 -13.875 7.5625 C-12.92367187 6.78003906 -11.97234375 5.99757813 -10.9921875 5.19140625 C-3.90374332 0 -3.90374332 0 0 0 Z " fill="#0A0B05" transform="translate(192,70)"/>
<path d="M0 0 C0.33 0 0.66 0 1 0 C1.03738281 0.83144531 1.07476562 1.66289062 1.11328125 2.51953125 C1.17902344 3.60621094 1.24476563 4.69289063 1.3125 5.8125 C1.37050781 6.89144531 1.42851562 7.97039062 1.48828125 9.08203125 C2.04083372 12.2328457 2.53946189 13.08078028 5 15 C6 16 7 17 8 18 C3.75354935 18 1.61475228 16.18249194 -2 14 C-1.85970581 11.8537974 -1.71261836 9.70803782 -1.5625 7.5625 C-1.48128906 6.36753906 -1.40007812 5.17257812 -1.31640625 3.94140625 C-1 1 -1 1 0 0 Z " fill="#050502" transform="translate(235,349)"/>
<path d="M0 0 C2.375 0.25 2.375 0.25 5 1 C6.125 2.9375 6.125 2.9375 7 5 C7.99 5.66 8.98 6.32 10 7 C10.6875 9.625 10.6875 9.625 11 12 C8 12 8 12 6.39453125 10.609375 C5.87246094 9.99578125 5.35039062 9.3821875 4.8125 8.75 C4.28269531 8.14671875 3.75289063 7.5434375 3.20703125 6.921875 C2 5 2 5 2 1 C1.34 0.67 0.68 0.34 0 0 Z " fill="#121212" transform="translate(309,71)"/>
<path d="M0 0 C2.05078125 0.03255208 4.1015625 0.06510417 6.15234375 0.09765625 C6.48234375 1.08765625 6.81234375 2.07765625 7.15234375 3.09765625 C6.82234375 3.75765625 6.49234375 4.41765625 6.15234375 5.09765625 C3.51234375 5.09765625 0.87234375 5.09765625 -1.84765625 5.09765625 C-2.41015625 3.16015625 -2.41015625 3.16015625 -2.84765625 1.09765625 C-1.84765625 0.09765625 -1.84765625 0.09765625 0 0 Z " fill="#121213" transform="translate(230.84765625,34.90234375)"/>
<path d="M0 0 C0.66 0.33 1.32 0.66 2 1 C2 1.99 2 2.98 2 4 C2.63040043 5.35085807 3.30251417 6.68252676 4 8 C4.67966676 9.66140763 5.34938905 11.32700041 6 13 C2.61447304 11.54905987 0.31867051 9.8783496 -2 7 C-2.75 3.75 -2.75 3.75 -3 1 C-2.01 0.67 -1.02 0.34 0 0 Z " fill="#090906" transform="translate(227,227)"/>
<path d="M0 0 C1.85772162 0.08984301 3.71247985 0.24611861 5.5625 0.4375 C7.08037109 0.59025391 7.08037109 0.59025391 8.62890625 0.74609375 C9.80259766 0.87177734 9.80259766 0.87177734 11 1 C11 1.66 11 2.32 11 3 C9.35 3.33 7.7 3.66 6 4 C6 3.34 6 2.68 6 2 C5.01 2.495 5.01 2.495 4 3 C4 4.32 4 5.64 4 7 C4.66 7.66 5.32 8.32 6 9 C5.01 9.495 5.01 9.495 4 10 C0.9083091 7.47043472 0.09068668 4.77545388 -1 1 C-0.67 0.67 -0.34 0.34 0 0 Z " fill="#080903" transform="translate(80,129)"/>
<path d="M0 0 C1.8125 0.1875 1.8125 0.1875 4 1 C5.75 3.5625 5.75 3.5625 7 6 C4 8 4 8 1 8 C-0.42944945 5.64561267 -1.08661261 4.51967567 -0.625 1.75 C-0.41875 1.1725 -0.2125 0.595 0 0 Z " fill="#101110" transform="translate(348,123)"/>
<path d="M0 0 C0.99 0.99 1.98 1.98 3 3 C1.98545548 5.5363613 1.3146444 6.79351461 -1 8.3125 C-1.99 8.6528125 -1.99 8.6528125 -3 9 C-3.66 8.67 -4.32 8.34 -5 8 C-4.67 6.02 -4.34 4.04 -4 2 C-2.68 2 -1.36 2 0 2 C0 1.34 0 0.68 0 0 Z " fill="#121212" transform="translate(353,255)"/>
<path d="M0 0 C0.66 0 1.32 0 2 0 C1.46105575 4.59808129 0.23428472 7.86784369 -2.0625 11.875 C-2.61035156 12.84179688 -3.15820312 13.80859375 -3.72265625 14.8046875 C-4.14417969 15.52914062 -4.56570313 16.25359375 -5 17 C-5.99 17 -6.98 17 -8 17 C-6.95833333 15.27473958 -5.91666667 13.54947917 -4.875 11.82421875 C-3.78376001 9.88638074 -3.78376001 9.88638074 -4 7 C-3.34 6.34 -2.68 5.68 -2 5 C-1.29289322 3.35008418 -0.62056011 1.68437744 0 0 Z " fill="#080904" transform="translate(288,175)"/>
<path d="M0 0 C3.465 1.485 3.465 1.485 7 3 C6.125 6.875 6.125 6.875 5 8 C3.65732587 8.08631874 2.31025678 8.10706473 0.96484375 8.09765625 C0.15595703 8.09443359 -0.65292969 8.09121094 -1.48632812 8.08789062 C-2.33646484 8.07951172 -3.18660156 8.07113281 -4.0625 8.0625 C-4.91650391 8.05798828 -5.77050781 8.05347656 -6.65039062 8.04882812 C-8.76695663 8.03700373 -10.88348685 8.01906769 -13 8 C-11 6 -11 6 -7.7421875 5.8046875 C-6.46601563 5.82789063 -5.18984375 5.85109375 -3.875 5.875 C-1.95300781 5.90207031 -1.95300781 5.90207031 0.0078125 5.9296875 C1.48894531 5.96449219 1.48894531 5.96449219 3 6 C2.67 5.01 2.34 4.02 2 3 C1.34 2.67 0.68 2.34 0 2 C0 1.34 0 0.68 0 0 Z " fill="#070903" transform="translate(264,362)"/>
<path d="M0 0 C3.061613 3.061613 3.56549557 6.82987694 4.6875 10.9375 C4.92533203 11.76185547 5.16316406 12.58621094 5.40820312 13.43554688 C5.62798828 14.22896484 5.84777344 15.02238281 6.07421875 15.83984375 C6.27619873 16.56550537 6.47817871 17.29116699 6.6862793 18.03881836 C7 20 7 20 6 23 C5.60167969 21.89591797 5.60167969 21.89591797 5.1953125 20.76953125 C4.84210938 19.79371094 4.48890625 18.81789062 4.125 17.8125 C3.60292969 16.36810547 3.60292969 16.36810547 3.0703125 14.89453125 C2.38359973 13.03739928 1.65497151 11.19493352 0.875 9.375 C-0.29544002 6.19809138 -0.13153884 3.35424039 0 0 Z " fill="#040501" transform="translate(359,135)"/>
<path d="M0 0 C1.57075958 4.6156166 0.98052311 9.53280197 0.78515625 14.33203125 C0.70462878 16.68783041 0.70462878 16.68783041 1 20 C1.99 20.66 2.98 21.32 4 22 C3.01 22.99 2.02 23.98 1 25 C0.34 24.67 -0.32 24.34 -1 24 C-1.02887236 20.18751574 -1.04675492 16.3750593 -1.0625 12.5625 C-1.07087891 11.47388672 -1.07925781 10.38527344 -1.08789062 9.26367188 C-1.09111328 8.22919922 -1.09433594 7.19472656 -1.09765625 6.12890625 C-1.10289307 5.17056885 -1.10812988 4.21223145 -1.11352539 3.22485352 C-1 1 -1 1 0 0 Z " fill="#080804" transform="translate(159,119)"/>
<path d="M0 0 C-1.485 1.485 -1.485 1.485 -3 3 C2.28 3.33 7.56 3.66 13 4 C13 4.33 13 4.66 13 5 C7.06 5 1.12 5 -5 5 C-5.33 4.01 -5.66 3.02 -6 2 C-6.66 2 -7.32 2 -8 2 C-7.67 1.34 -7.34 0.68 -7 0 C-2.52459016 -1.26229508 -2.52459016 -1.26229508 0 0 Z " fill="#090B06" transform="translate(219,365)"/>
<path d="M0 0 C0.33 0.66 0.66 1.32 1 2 C0.67 2.66 0.34 3.32 0 4 C0.66 4.33 1.32 4.66 2 5 C1.01 6.485 1.01 6.485 0 8 C-0.66 8 -1.32 8 -2 8 C-1.814375 8.515625 -1.62875 9.03125 -1.4375 9.5625 C-0.83732143 12.90635206 -1.31359887 15.69279457 -2 19 C-2.66 19.33 -3.32 19.66 -4 20 C-4.38307318 13.23237384 -3.17688744 7.41787022 -1 1 C-0.67 0.67 -0.34 0.34 0 0 Z " fill="#050702" transform="translate(153,155)"/>
<path d="M0 0 C0.66 0.33 1.32 0.66 2 1 C0.02 5.95 -1.96 10.9 -4 16 C-6.1519437 12.77208445 -6.20086443 11.71599191 -6 8 C-5.01 7.67 -4.02 7.34 -3 7 C-1.28432339 3.49705129 -1.28432339 3.49705129 0 0 Z " fill="#070804" transform="translate(208,193)"/>
<path d="M0 0 C4.52002061 4.03573269 7.80443873 8.31103255 8.25 14.4375 C8.1675 15.283125 8.085 16.12875 8 17 C5.55185821 13.9703348 3.90547147 10.92450401 2.3125 7.375 C1.87550781 6.41335938 1.43851563 5.45171875 0.98828125 4.4609375 C0 2 0 2 0 0 Z " fill="#040603" transform="translate(59,254)"/>
<path d="M0 0 C3.90158354 0.57801238 5.97857777 2.58286221 9 5 C11.18214568 5.77833534 11.18214568 5.77833534 13 6 C13 6.99 13 7.98 13 9 C13.66 9.33 14.32 9.66 15 10 C10.52412834 9.48386345 8.12454734 7.85147631 4.6875 5 C3.80449219 4.278125 2.92148438 3.55625 2.01171875 2.8125 C1.34785156 2.214375 0.68398437 1.61625 0 1 C0 0.67 0 0.34 0 0 Z M11 4 C13 5 13 5 13 5 Z " fill="#060803" transform="translate(107,215)"/>
<path d="M0 0 C1.9375 0.6875 1.9375 0.6875 4 2 C4.75 4.625 4.75 4.625 5 7 C4.01 7.33 3.02 7.66 2 8 C0.68 6.35 -0.64 4.7 -2 3 C-1.34 2.01 -0.68 1.02 0 0 Z " fill="#11110F" transform="translate(72,271)"/>
<path d="M0 0 C0.33 0 0.66 0 1 0 C1 4.62 1 9.24 1 14 C1.66 14.33 2.32 14.66 3 15 C2.67 17.31 2.34 19.62 2 22 C1.34 22 0.68 22 0 22 C-0.33 22.66 -0.66 23.32 -1 24 C-0.67 16.08 -0.34 8.16 0 0 Z " fill="#050603" transform="translate(363,188)"/>
<path d="M0 0 C0.66 0.33 1.32 0.66 2 1 C0.71937515 2.7074998 -0.61767557 4.37373596 -2 6 C-2.66 6 -3.32 6 -4 6 C-4.226875 6.5775 -4.45375 7.155 -4.6875 7.75 C-6.33038023 10.5663661 -8.39533227 12.08077114 -11 14 C-11.33 13.01 -11.66 12.02 -12 11 C-9.94766315 8.7522025 -8.99332739 7.9977758 -6 7 C-5.690625 6.38125 -5.38125 5.7625 -5.0625 5.125 C-3.79701313 2.59402625 -2.32727163 1.55151442 0 0 Z " fill="#040602" transform="translate(101,81)"/>
<path d="M0 0 C0.93423645 3.01031744 1.04449911 3.86650268 0 7 C0.66 7.33 1.32 7.66 2 8 C1.34 8 0.68 8 0 8 C-0.268125 9.093125 -0.53625 10.18625 -0.8125 11.3125 C-1.930763 14.7850009 -2.43744207 15.71827034 -5 18 C-3.75971762 11.82777121 -2.10396411 5.93317878 0 0 Z " fill="#080904" transform="translate(271,276)"/>
<path d="M0 0 C1.69393215 1.64553409 3.35732623 3.30419392 5 5 C5.73283203 5.75603516 5.73283203 5.75603516 6.48046875 6.52734375 C7.875 8.0625 7.875 8.0625 10 11 C9.8125 13.375 9.8125 13.375 9 15 C8.566875 14.05125 8.13375 13.1025 7.6875 12.125 C6.20697799 8.79958063 6.20697799 8.79958063 3 7 C2.67 6.34 2.34 5.68 2 5 C1.01 4.34 0.02 3.68 -1 3 C-0.67 2.01 -0.34 1.02 0 0 Z " fill="#040402" transform="translate(86,288)"/>
<path d="M0 0 C4.15289097 3.67371124 7.23378258 8.22366459 10 13 C10 13.66 10 14.32 10 15 C9.34 15 8.68 15 8 15 C3.4861737 10.4861737 1.66929343 6.10717108 0 0 Z " fill="#030401" transform="translate(76,273)"/>
<path d="M0 0 C1.65 0.33 3.3 0.66 5 1 C5 1.66 5 2.32 5 3 C7.475 3.99 7.475 3.99 10 5 C10 5.66 10 6.32 10 7 C10.99 7.33 11.98 7.66 13 8 C12.67 8.99 12.34 9.98 12 11 C11.48050781 10.60167969 10.96101562 10.20335937 10.42578125 9.79296875 C6.72073158 6.97822677 3.06424935 4.28614026 -1 2 C-0.67 1.34 -0.34 0.68 0 0 Z " fill="#070804" transform="translate(123,187)"/>
<path d="M0 0 C0.33 0 0.66 0 1 0 C1.13277344 1.10859375 1.26554687 2.2171875 1.40234375 3.359375 C1.58059757 4.8229327 1.75899028 6.28647349 1.9375 7.75 C2.06801758 8.84441406 2.06801758 8.84441406 2.20117188 9.9609375 C2.62027409 13.37584442 3.117274 16.67603543 4 20 C3.34 20.33 2.68 20.66 2 21 C0.13867327 16.29538677 -0.2509496 12.1242304 -0.125 7.125 C-0.11146484 6.09246094 -0.11146484 6.09246094 -0.09765625 5.0390625 C-0.07432513 3.35922162 -0.03846326 1.67956254 0 0 Z " fill="#060802" transform="translate(119,114)"/>
<path d="M0 0 C2 2 2 2 2 4 C1.34 4 0.68 4 0 4 C-0.268125 4.53625 -0.53625 5.0725 -0.8125 5.625 C-1.204375 6.40875 -1.59625 7.1925 -2 8 C-2.495 9.051875 -2.99 10.10375 -3.5 11.1875 C-5 14 -5 14 -7 15 C-6.42176904 10.93774452 -5.10882263 8.15237654 -2.9375 4.6875 C-2.38964844 3.80449219 -1.84179688 2.92148438 -1.27734375 2.01171875 C-0.64505859 1.01591797 -0.64505859 1.01591797 0 0 Z " fill="#080A05" transform="translate(170,86)"/>
<path d="M0 0 C1.32 0.33 2.64 0.66 4 1 C4 1.66 4 2.32 4 3 C5.32 3 6.64 3 8 3 C9.703125 4.53125 9.703125 4.53125 11.25 6.5 C11.77078125 7.1496875 12.2915625 7.799375 12.828125 8.46875 C13.40820312 9.22671875 13.40820312 9.22671875 14 10 C13.67 10.66 13.34 11.32 13 12 C10.83035229 10.19096681 8.66421535 8.37801121 6.5 6.5625 C5.87996094 6.04623047 5.25992187 5.52996094 4.62109375 4.99804688 C3.06197284 3.68735732 1.52871719 2.34602708 0 1 C0 0.67 0 0.34 0 0 Z " fill="#030401" transform="translate(303,71)"/>
<path d="M0 0 C3.8665284 3.222107 4.88059018 6.14922412 6 11 C6.66 11 7.32 11 8 11 C8.66 12.98 9.32 14.96 10 17 C5.1129901 12.81113437 2.46276408 7.92111364 0 2 C0 1.34 0 0.68 0 0 Z " fill="#050702" transform="translate(89,155)"/>
<path d="M0 0 C1.32 0.66 2.64 1.32 4 2 C3.53980469 2.37769531 3.07960938 2.75539063 2.60546875 3.14453125 C0.53795611 5.53399233 0.06693407 7.63383827 -0.6875 10.6875 C-1.06455078 12.17830078 -1.06455078 12.17830078 -1.44921875 13.69921875 C-1.63097656 14.45847656 -1.81273438 15.21773437 -2 16 C-2.33 16 -2.66 16 -3 16 C-2.57910004 10.39538469 -2.08386889 5.27913453 0 0 Z " fill="#090B06" transform="translate(122,97)"/>
<path d="M0 0 C0.99 0.66 1.98 1.32 3 2 C2.2884375 2.61875 2.2884375 2.61875 1.5625 3.25 C-0.16266518 5.182185 -0.56584875 6.48192275 -1 9 C-2.5 7.625 -2.5 7.625 -4 6 C-4 5.34 -4 4.68 -4 4 C-4.66 3.67 -5.32 3.34 -6 3 C-5.195625 2.690625 -4.39125 2.38125 -3.5625 2.0625 C-1.10919595 1.23664655 -1.10919595 1.23664655 0 0 Z " fill="#030402" transform="translate(257,342)"/>
<path d="M0 0 C2.31 0.33 4.62 0.66 7 1 C6.67 1.99 6.34 2.98 6 4 C2.9375 5.1875 2.9375 5.1875 0 6 C-1.125 2.25 -1.125 2.25 0 0 Z " fill="#0F0F0E" transform="translate(327,295)"/>
<path d="M0 0 C2.60444348 -0.05394705 5.20776998 -0.09364469 7.8125 -0.125 C8.55048828 -0.14175781 9.28847656 -0.15851563 10.04882812 -0.17578125 C13.91246426 -0.21074628 15.70903668 -0.19397555 19 2 C17.205625 2.2165625 17.205625 2.2165625 15.375 2.4375 C11.8994842 2.87039343 8.45049966 3.39616256 5 4 C4.67 3.34 4.34 2.68 4 2 C1.98330173 0.86649466 1.98330173 0.86649466 0 0 Z " fill="#080905" transform="translate(179,250)"/>
<path d="M0 0 C0.33 0.99 0.66 1.98 1 3 C1.66 3.33 2.32 3.66 3 4 C1.25 8.875 1.25 8.875 -1 10 C-1.66 10.99 -2.32 11.98 -3 13 C-2.52060632 8.28596212 -2.03165952 4.33420699 0 0 Z " fill="#090A05" transform="translate(227,205)"/>
<path d="M0 0 C0.12375 0.639375 0.2475 1.27875 0.375 1.9375 C0.684375 2.9584375 0.684375 2.9584375 1 4 C1.66 4.33 2.32 4.66 3 5 C2.505 5.4125 2.01 5.825 1.5 6.25 C-0.43386092 8.12202338 -0.43386092 8.12202338 0 12 C-0.66 12 -1.32 12 -2 12 C-2.33 14.97 -2.66 17.94 -3 21 C-3.33 21 -3.66 21 -4 21 C-3.54034292 13.69303751 -2.11670277 7.00242552 0 0 Z " fill="#050503" transform="translate(55,142)"/>
<path d="M0 0 C3 1 3 1 3.984375 2.85546875 C5.549808 7.62364987 6.40843329 11.0064638 5 16 C4.67 16 4.34 16 4 16 C2.66666667 10.66666667 1.33333333 5.33333333 0 0 Z " fill="#070904" transform="translate(257,93)"/>
<path d="M0 0 C0.74958984 0.00451172 1.49917969 0.00902344 2.27148438 0.01367188 C4.11852383 0.02543646 5.96552213 0.04337135 7.8125 0.0625 C5.45891749 2.41608251 4.88281606 2.34121904 1.6796875 2.4765625 C0.47119141 2.53457031 0.47119141 2.53457031 -0.76171875 2.59375 C-2.02435547 2.64015625 -2.02435547 2.64015625 -3.3125 2.6875 C-4.58673828 2.74550781 -4.58673828 2.74550781 -5.88671875 2.8046875 C-7.98661684 2.89906494 -10.08702891 2.98187586 -12.1875 3.0625 C-9.97894074 -1.35461851 -4.30476406 -0.04887505 0 0 Z " fill="#040501" transform="translate(193.1875,38.9375)"/>
<path d="M0 0 C1.44858525 2.17287787 2.74168059 4.28671138 4 6.5625 C5.76837418 9.93876559 5.76837418 9.93876559 8 12 C5 12 5 12 2 11 C1.28293018 9.01751285 0.61709587 7.01584651 0 5 C-0.66 4.34 -1.32 3.68 -2 3 C-1.34 3 -0.68 3 0 3 C0 2.01 0 1.02 0 0 Z " fill="#060704" transform="translate(203,353)"/>
<path d="M0 0 C0.33 0.99 0.66 1.98 1 3 C1.66 3 2.32 3 3 3 C2.34 4.98 1.68 6.96 1 9 C0.34 9 -0.32 9 -1 9 C-1.33 9.66 -1.66 10.32 -2 11 C-2 6.98425198 -1.80684352 3.61368705 0 0 Z " fill="#121211" transform="translate(337,281)"/>
<path d="M0 0 C0.66 0 1.32 0 2 0 C5.66700794 4.52499377 7.71141093 9.37706588 9 15 C4.30047713 10.78663467 2.21993301 5.80597864 0 0 Z " fill="#030502" transform="translate(67,271)"/>
<path d="M0 0 C2.24893954 -0.10823773 4.49937575 -0.18569645 6.75 -0.25 C8.00296875 -0.29640625 9.2559375 -0.3428125 10.546875 -0.390625 C14 0 14 0 16.453125 2.015625 C16.96359375 2.67046875 17.4740625 3.3253125 18 4 C15 4 15 4 12 2 C9.81663332 1.7213842 9.81663332 1.7213842 7.5 1.8125 C6.33984375 1.82216797 6.33984375 1.82216797 5.15625 1.83203125 C2.81651151 1.9269435 2.81651151 1.9269435 0 3 C0 2.01 0 1.02 0 0 Z " fill="#030501" transform="translate(119,256)"/>
<path d="M0 0 C2 3 2 3 1.64453125 5.6640625 C1.36996094 6.64117187 1.09539062 7.61828125 0.8125 8.625 C0.55082031 9.60726562 0.28914063 10.58953125 0.01953125 11.6015625 C-0.48513672 12.78878906 -0.48513672 12.78878906 -1 14 C-1.99 14.33 -2.98 14.66 -4 15 C-3.79503906 14.25234375 -3.59007812 13.5046875 -3.37890625 12.734375 C-3.10949219 11.74953125 -2.84007812 10.7646875 -2.5625 9.75 C-2.29566406 8.77546875 -2.02882813 7.8009375 -1.75390625 6.796875 C-1.14455416 4.53627347 -0.55761745 2.27377991 0 0 Z " fill="#060703" transform="translate(356,237)"/>
<path d="M0 0 C0.33 0 0.66 0 1 0 C2.11477625 6.67522647 2.26584133 10.99085195 -1 17 C-1.33 17 -1.66 17 -2 17 C-1.85786703 15.10388566 -1.71113093 13.20811606 -1.5625 11.3125 C-1.48128906 10.25675781 -1.40007812 9.20101562 -1.31640625 8.11328125 C-1.03548319 5.34913703 -0.59843148 2.71054259 0 0 Z " fill="#20211A" transform="translate(262,104)"/>
<path d="M0 0 C0.33 0.99 0.66 1.98 1 3 C1.66 3 2.32 3 3 3 C2 5 2 5 0.5625 6.75 C-1.26617942 9.38329836 -2.09570543 11.93931069 -3 15 C-3.66 14.67 -4.32 14.34 -5 14 C-3.35 9.38 -1.7 4.76 0 0 Z " fill="#050704" transform="translate(162,346)"/>
<path d="M0 0 C1.39211215 4.17633644 -0.0464421 5.78960515 -1.9375 9.6875 C-2.50339844 10.86699219 -3.06929688 12.04648437 -3.65234375 13.26171875 C-4.09707031 14.16535156 -4.54179687 15.06898438 -5 16 C-5.66 16 -6.32 16 -7 16 C-6.28028381 12.24654344 -4.66887798 9.13908031 -2.9375 5.75 C-2.11572266 4.13351562 -2.11572266 4.13351562 -1.27734375 2.484375 C-0.64505859 1.25460938 -0.64505859 1.25460938 0 0 Z " fill="#030300" transform="translate(358,253)"/>
<path d="M0 0 C1.65 0 3.3 0 5 0 C6.47075246 4.41225737 7.36884358 7.48281619 6 12 C5.67 12 5.34 12 5 12 C4.731875 11.13375 4.46375 10.2675 4.1875 9.375 C3.02888013 6.08208036 1.61790161 3.08872125 0 0 Z " fill="#0B0D06" transform="translate(128,146)"/>
<path d="M0 0 C0.66 0 1.32 0 2 0 C1.34580901 5.06998019 -0.8546409 9.41990777 -3 14 C-3.33 13.01 -3.66 12.02 -4 11 C-4.66 10.34 -5.32 9.68 -6 9 C-5.01 9 -4.02 9 -3 9 C-3 7.68 -3 6.36 -3 5 C-2.34 4.34 -1.68 3.68 -1 3 C-0.67 2.01 -0.34 1.02 0 0 Z " fill="#090A06" transform="translate(69,124)"/>
<path d="M0 0 C6.6 0 13.2 0 20 0 C20 0.33 20 0.66 20 1 C14.39 1 8.78 1 3 1 C2.67 1.66 2.34 2.32 2 3 C1.01 3 0.02 3 -1 3 C-0.67 2.01 -0.34 1.02 0 0 Z " fill="#020200" transform="translate(274,250)"/>
<path d="M0 0 C1.77049689 -0.05410687 3.54146849 -0.09284119 5.3125 -0.125 C6.29863281 -0.14820313 7.28476563 -0.17140625 8.30078125 -0.1953125 C11 0 11 0 14 2 C9.02936879 2.91297308 4.97063121 2.91297308 0 2 C0 1.34 0 0.68 0 0 Z " fill="#060602" transform="translate(117,369)"/>
<path d="M0 0 C2.94751667 2.74423966 5.22773678 5.36219655 7 9 C6.67 9.99 6.34 10.98 6 12 C1.6409923 8.51279384 1.05447817 5.27239085 0 0 Z " fill="#020300" transform="translate(242,356)"/>
<path d="M0 0 C0.99 0.99 1.98 1.98 3 3 C2.67 3.33 2.34 3.66 2 4 C2.99 4.99 3.98 5.98 5 7 C4.34 8.32 3.68 9.64 3 11 C2.30034557 9.73581754 1.61565237 8.46334598 0.9375 7.1875 C0.55464844 6.47980469 0.17179688 5.77210938 -0.22265625 5.04296875 C-1 3 -1 3 0 0 Z " fill="#090A05" transform="translate(152,193)"/>
<path d="M0 0 C1.134375 0.020625 2.26875 0.04125 3.4375 0.0625 C2.0625 2.0625 2.0625 2.0625 0.4375 4.0625 C-0.2225 4.0625 -0.8825 4.0625 -1.5625 4.0625 C-1.8925 4.7225 -2.2225 5.3825 -2.5625 6.0625 C-3.2225 4.4125 -3.8825 2.7625 -4.5625 1.0625 C-3.5625 0.0625 -3.5625 0.0625 0 0 Z " fill="#0B0B08" transform="translate(277.5625,193.9375)"/>
<path d="M0 0 C0.66 0.99 1.32 1.98 2 3 C-0.97 5.31 -3.94 7.62 -7 10 C-7.33 9.34 -7.66 8.68 -8 8 C-5.33333333 5.33333333 -2.66666667 2.66666667 0 0 Z " fill="#090A05" transform="translate(236,123)"/>
<path d="M0 0 C0.99 1.32 1.98 2.64 3 4 C3.66 3.67 4.32 3.34 5 3 C4.67 5.97 4.34 8.94 4 12 C0.80291562 7.96889361 -0.13900367 5.14313574 0 0 Z " fill="#161614" transform="translate(51,165)"/>
<path d="M0 0 C0.66 0 1.32 0 2 0 C2.69906942 1.59915881 3.38389468 3.20455045 4.0625 4.8125 C4.63677734 6.15248047 4.63677734 6.15248047 5.22265625 7.51953125 C6 10 6 10 5 13 C2.53698577 10.53698577 2.23233479 8.72639964 1.375 5.375 C1.11460937 4.37210938 0.85421875 3.36921875 0.5859375 2.3359375 C0.39257812 1.56507813 0.19921875 0.79421875 0 0 Z " fill="#050602" transform="translate(352,136)"/>
<path d="M0 0 C1.65 0.33 3.3 0.66 5 1 C4 3 4 3 0.9375 4.125 C-0.5165625 4.558125 -0.5165625 4.558125 -2 5 C-2 5.66 -2 6.32 -2 7 C-2.66 6.67 -3.32 6.34 -4 6 C-2.68 4.02 -1.36 2.04 0 0 Z " fill="#040501" transform="translate(317,351)"/>
<path d="M0 0 C0.66 0.33 1.32 0.66 2 1 C1.67 2.65 1.34 4.3 1 6 C2.65 5.67 4.3 5.34 6 5 C5.01 6.485 5.01 6.485 4 8 C2.35 7.67 0.7 7.34 -1 7 C-1.625 5.1875 -1.625 5.1875 -2 3 C-1.34 2.01 -0.68 1.02 0 0 Z " fill="#030400" transform="translate(326,294)"/>
<path d="M0 0 C1.32 0.33 2.64 0.66 4 1 C4 1.66 4 2.32 4 3 C0.58168085 5.5393228 -1.75776898 6.3636198 -6 6 C-5.195625 5.38125 -4.39125 4.7625 -3.5625 4.125 C-0.96125481 2.25835959 -0.96125481 2.25835959 0 0 Z " fill="#0B0C08" transform="translate(164,296)"/>
<path d="M0 0 C0.66 0.66 1.32 1.32 2 2 C0.68 4.64 -0.64 7.28 -2 10 C-2.66 10 -3.32 10 -4 10 C-3.125 4.25 -3.125 4.25 -2 2 C-1.34 2 -0.68 2 0 2 C0 1.34 0 0.68 0 0 Z " fill="#1B1C18" transform="translate(176,269)"/>
<path d="M0 0 C4.455 0.99 4.455 0.99 9 2 C7.68 2.99 6.36 3.98 5 5 C3.0625 4.1875 3.0625 4.1875 1 3 C0.67 2.01 0.34 1.02 0 0 Z " fill="#090A06" transform="translate(263,42)"/>
<path d="M0 0 C0.33 0.66 0.66 1.32 1 2 C2.65438613 2.69658363 4.32254318 3.36096883 6 4 C6.99 4.66 7.98 5.32 9 6 C8.67 6.99 8.34 7.98 8 9 C5.03 6.69 2.06 4.38 -1 2 C-0.67 1.34 -0.34 0.68 0 0 Z " fill="#070904" transform="translate(103,175)"/>
<path d="M0 0 C0.185625 0.9590625 0.185625 0.9590625 0.375 1.9375 C0.684375 2.9584375 0.684375 2.9584375 1 4 C1.66 4.33 2.32 4.66 3 5 C2.34 5 1.68 5 1 5 C0.87625 6.299375 0.7525 7.59875 0.625 8.9375 C0.4140625 11.15234375 0.4140625 11.15234375 0 13 C-0.99 13.495 -0.99 13.495 -2 14 C-1.85795259 12.41632253 -1.71119847 10.83306682 -1.5625 9.25 C-1.48128906 8.36828125 -1.40007812 7.4865625 -1.31640625 6.578125 C-1.03761535 4.30649548 -0.61209423 2.20148177 0 0 Z " fill="#070703" transform="translate(161,104)"/>
<path d="M0 0 C2 1 4 2 6 3 C5.67 4.32 5.34 5.64 5 7 C3.02 5.68 1.04 4.36 -1 3 C-0.67 2.01 -0.34 1.02 0 0 Z " fill="#0B0C07" transform="translate(106,361)"/>
<path d="M0 0 C2 3 2 3 3 6.125 C3.6686673 9.12511062 3.6686673 9.12511062 6 10 C4.35 10 2.7 10 1 10 C0.67 6.7 0.34 3.4 0 0 Z " fill="#060802" transform="translate(116,347)"/>
<path d="M0 0 C2.33944736 0.28730055 4.6739143 0.61936779 7 1 C7.33 2.32 7.66 3.64 8 5 C4.17902761 4.46930939 1.93828597 3.50298434 -1 1 C-0.67 0.67 -0.34 0.34 0 0 Z " fill="#090B04" transform="translate(114,183)"/>
<path d="M0 0 C2.96404505 2.80804268 5.44499019 5.18315774 7 9 C6.34 9 5.68 9 5 9 C4.34 8.01 3.68 7.02 3 6 C2.01 5.67 1.02 5.34 0 5 C0 3.35 0 1.7 0 0 Z " fill="#070804" transform="translate(120,148)"/>
<path d="M0 0 C1.90318884 2.85478326 2.4619099 4.41941308 3.125 7.6875 C3.29257813 8.49574219 3.46015625 9.30398438 3.6328125 10.13671875 C3.75398437 10.75160156 3.87515625 11.36648438 4 12 C0.28936315 8.75828979 -0.08176548 5.74421171 -1 1 C-0.67 0.67 -0.34 0.34 0 0 Z " fill="#040502" transform="translate(205,269)"/>
<path d="M0 0 C0.66 0 1.32 0 2 0 C4.21538462 5.41538462 4.21538462 5.41538462 3.125 8.375 C2.75375 8.91125 2.3825 9.4475 2 10 C0.68373308 6.38026598 0 3.90432869 0 0 Z " fill="#060704" transform="translate(138,183)"/>
<path d="M0 0 C0.33 2.64 0.66 5.28 1 8 C0.67 7.34 0.34 6.68 0 6 C-2.11785113 4.88214887 -2.11785113 4.88214887 -5 4 C-5 3.34 -5 2.68 -5 2 C-2 0 -2 0 0 0 Z " fill="#080805" transform="translate(367,159)"/>
<path d="M0 0 C1.31611677 0.95336021 2.62778961 1.91285774 3.9375 2.875 C4.66839844 3.40867187 5.39929688 3.94234375 6.15234375 4.4921875 C8 6 8 6 9 8 C7.68 7.67 6.36 7.34 5 7 C5 6.34 5 5.68 5 5 C2.525 4.01 2.525 4.01 0 3 C0 2.01 0 1.02 0 0 Z " fill="#050502" transform="translate(307,65)"/>
<path d="M0 0 C0.33 0.99 0.66 1.98 1 3 C-2.08809695 4.76462683 -3.23312136 5 -7 5 C-7 4.34 -7 3.68 -7 3 C-4.625 1.9375 -4.625 1.9375 -2 1 C-1.34 1.33 -0.68 1.66 0 2 C0 1.34 0 0.68 0 0 Z " fill="#080705" transform="translate(318,366)"/>
<path d="M0 0 C0 1.32 0 2.64 0 4 C-1.98 4 -3.96 4 -6 4 C-5.67 3.01 -5.34 2.02 -5 1 C-3 0 -3 0 0 0 Z " fill="#191C14" transform="translate(223,301)"/>
<path d="M0 0 C2.4375 0.75 2.4375 0.75 5 2 C5.8125 4.125 5.8125 4.125 6 6 C4.68 5.34 3.36 4.68 2 4 C1.34 4.66 0.68 5.32 0 6 C0 4.02 0 2.04 0 0 Z " fill="#1A1C15" transform="translate(249,299)"/>
<path d="M0 0 C1.14926266 0.95421808 2.29430541 1.91352045 3.4375 2.875 C4.07558594 3.40867188 4.71367188 3.94234375 5.37109375 4.4921875 C7 6 7 6 8 8 C5.6875 7.8125 5.6875 7.8125 3 7 C0 2.96551724 0 2.96551724 0 0 Z " fill="#0A0D05" transform="translate(112,140)"/>
<path d="M0 0 C1.27351308 2.54702616 0.80191925 3.4282945 0.0625 6.125 C-0.13214844 6.84945313 -0.32679688 7.57390625 -0.52734375 8.3203125 C-0.76130859 9.15175781 -0.76130859 9.15175781 -1 10 C-2.32 9.34 -3.64 8.68 -5 8 C-4.01 8 -3.02 8 -2 8 C-2.226875 7.4225 -2.45375 6.845 -2.6875 6.25 C-3 4 -3 4 -1.5625 1.75 C-1.046875 1.1725 -0.53125 0.595 0 0 Z " fill="#070804" transform="translate(322,354)"/>
<path d="M0 0 C0.66 0.99 1.32 1.98 2 3 C-0.3125 5.0625 -0.3125 5.0625 -3 7 C-3.99 6.67 -4.98 6.34 -6 6 C-4 4 -2 2 0 0 Z " fill="#050602" transform="translate(265,294)"/>
<path d="M0 0 C0.33 0 0.66 0 1 0 C1.66 3.63 2.32 7.26 3 11 C0.90780074 8.21040099 -0.57568513 6.06775511 -2 3 C-1.34 2.01 -0.68 1.02 0 0 Z " fill="#060802" transform="translate(199,234)"/>
<path d="M0 0 C0.66 0 1.32 0 2 0 C2.33 2.97 2.66 5.94 3 9 C1.68 8.01 0.36 7.02 -1 6 C-0.67 4.02 -0.34 2.04 0 0 Z " fill="#050603" transform="translate(149,71)"/>
<path d="M0 0 C0.66 0.66 1.32 1.32 2 2 C0.125 7.75 0.125 7.75 -1 10 C-1.66 9.67 -2.32 9.34 -3 9 C-2.01 6.03 -1.02 3.06 0 0 Z " fill="#040502" transform="translate(276,262)"/>
<path d="M0 0 C4.8 2.46153846 4.8 2.46153846 5.8125 5.1875 C5.874375 5.785625 5.93625 6.38375 6 7 C5.01 7 4.02 7 3 7 C1.79371992 4.66785852 0.8345262 2.50357861 0 0 Z " fill="#060604" transform="translate(139,207)"/>
<path d="M0 0 C2 2 2 2 2.1953125 3.9453125 C2.13020833 5.96354167 2.06510417 7.98177083 2 10 C1.01 10.33 0.02 10.66 -1 11 C-0.67 7.37 -0.34 3.74 0 0 Z " fill="#060703" transform="translate(50,163)"/>
<path d="M0 0 C0.66 0 1.32 0 2 0 C2.99 1.98 3.98 3.96 5 6 C4.01 6 3.02 6 2 6 C0 3 0 3 0 0 Z " fill="#070905" transform="translate(122,135)"/>
<path d="M0 0 C2.32947183 2.11770166 3.88750845 4.03335588 5 7 C4.67 7.99 4.34 8.98 4 10 C3.566875 9.1028125 3.566875 9.1028125 3.125 8.1875 C1.95257974 5.80672208 1.95257974 5.80672208 0 3 C0 2.01 0 1.02 0 0 Z " fill="#030400" transform="translate(349,114)"/>
<path d="M0 0 C0.33 1.32 0.66 2.64 1 4 C0.34 3.67 -0.32 3.34 -1 3 C-0.67 2.01 -0.34 1.02 0 0 Z " fill="#000000" transform="translate(147,184)"/>
<path d="M0 0 C0.99 0.495 0.99 0.495 2 1 C1.67 1.99 1.34 2.98 1 4 C0.67 2.68 0.34 1.36 0 0 Z " fill="#000000" transform="translate(135,183)"/>
<path d="" fill="#000000" transform="translate(0,0)"/>
<path d="" fill="#000000" transform="translate(0,0)"/>
<path d="" fill="#000000" transform="translate(0,0)"/>
<path d="" fill="#000000" transform="translate(0,0)"/>
<path d="" fill="#000000" transform="translate(0,0)"/>
<path d="" fill="#000000" transform="translate(0,0)"/>
<path d="" fill="#000000" transform="translate(0,0)"/>
<path d="" fill="#000000" transform="translate(0,0)"/>
</svg>
